<?xml version="1.0" encoding="utf-8" standalone="no"?>
<!DOCTYPE svg PUBLIC "-//W3C//DTD SVG 1.1//EN"
  "http://www.w3.org/Graphics/SVG/1.1/DTD/svg11.dtd">
<svg xmlns:xlink="http://www.w3.org/1999/xlink" width="2332.8pt" height="972pt" viewBox="0 0 2332.8 972" xmlns="http://www.w3.org/2000/svg" version="1.1">
 <metadata>
  <rdf:RDF xmlns:dc="http://purl.org/dc/elements/1.1/" xmlns:cc="http://creativecommons.org/ns#" xmlns:rdf="http://www.w3.org/1999/02/22-rdf-syntax-ns#">
   <cc:Work>
    <dc:type rdf:resource="http://purl.org/dc/dcmitype/StillImage"/>
    <dc:date>2026-02-11T18:11:40.214943</dc:date>
    <dc:format>image/svg+xml</dc:format>
    <dc:creator>
     <cc:Agent>
      <dc:title>Matplotlib v3.10.8, https://matplotlib.org/</dc:title>
     </cc:Agent>
    </dc:creator>
   </cc:Work>
  </rdf:RDF>
 </metadata>
 <defs>
  <style type="text/css">*{stroke-linejoin: round; stroke-linecap: butt}</style>
 </defs>
 <g id="figure_1">
  <g id="axes_1">
   <g id="QuadContourSet_1">
    <path clip-path="url(#p0e04d335a7)" style="fill: none; stroke-dasharray: 5.55,2.4; stroke-dashoffset: 0; stroke: #ffffff; stroke-opacity: 0.3; stroke-width: 1.5"/>
    <path d="M 1693.896665 972 
L 1697.23839 965.078497 
L 1697.81156 964.746269 
L 1704.460681 963.323607 
L 1711.682972 959.49438 
L 1715.428958 957.492537 
L 1718.905263 956.128807 
L 1726.127554 954.320679 
L 1733.349845 951.710408 
L 1738.413664 950.238806 
L 1740.572136 949.743734 
L 1747.794427 948.453012 
L 1755.016718 946.392686 
L 1762.239009 944.181807 
L 1767.150675 942.985075 
L 1769.4613 942.544517 
L 1776.683591 941.469554 
L 1783.905882 940.058783 
L 1791.128173 939.05765 
L 1798.350464 937.654357 
L 1805.572755 936.76297 
L 1810.643748 935.731343 
L 1812.795046 935.370635 
L 1820.017337 934.440986 
L 1827.239628 933.41226 
L 1834.46192 932.624769 
L 1841.684211 931.561132 
L 1848.906502 930.814891 
L 1856.128793 929.899314 
L 1863.351084 929.061184 
L 1868.478816 928.477612 
L 1870.573375 928.274766 
L 1877.795666 927.458191 
L 1885.017957 927.071963 
L 1892.240248 926.090975 
L 1899.462539 925.440879 
L 1906.68483 924.912689 
L 1913.907121 924.243268 
L 1921.129412 923.88327 
L 1928.351703 923.043225 
L 1935.573994 922.533059 
L 1942.796285 922.049283 
L 1950.018576 921.986125 
L 1956.186615 921.223881 
L 1957.240867 921.111082 
L 1964.463158 920.447299 
L 1971.685449 920.253539 
L 1978.90774 919.958025 
L 1986.130031 919.619612 
L 1993.352322 919.109635 
L 2000.574613 919.101023 
L 2007.796904 918.482614 
L 2015.019195 918.264992 
L 2022.241486 917.770596 
L 2029.463777 917.452204 
L 2036.686068 917.260782 
L 2043.908359 917.156646 
L 2051.13065 916.869668 
L 2058.352941 916.343343 
L 2065.575232 916.284853 
L 2072.797523 916.116955 
L 2080.019814 915.662542 
L 2087.242105 915.48809 
L 2094.464396 915.409303 
L 2101.686687 915.315153 
L 2108.908978 914.915262 
L 2116.131269 914.712462 
L 2123.35356 914.421682 
L 2130.575851 914.518984 
L 2137.798142 914.350353 
L 2145.020433 914.003194 
L 2152.242724 913.972386 
L 2152.298962 913.970149 
L 2159.465015 913.713005 
L 2166.687307 913.541479 
L 2173.909598 913.703258 
L 2181.131889 913.424683 
L 2188.35418 913.31345 
L 2195.576471 913.181599 
L 2202.798762 913.447439 
L 2210.021053 912.984932 
L 2217.243344 913.013377 
L 2224.465635 912.926145 
L 2231.687926 912.967652 
L 2238.910217 912.718072 
L 2246.132508 912.804179 
L 2253.354799 912.623301 
L 2260.57709 912.556518 
L 2267.799381 912.528987 
L 2275.021672 912.584341 
L 2282.243963 912.609053 
L 2289.466254 912.536675 
L 2296.688545 912.449954 
L 2303.910836 912.297018 
L 2311.133127 912.436253 
L 2318.355418 912.454319 
L 2325.577709 912.353584 
L 2332.8 912.507189 
" clip-path="url(#p0e04d335a7)" style="fill: none; stroke-dasharray: 5.55,2.4; stroke-dashoffset: 0; stroke: #ffffff; stroke-opacity: 0.3; stroke-width: 1.5"/>
    <path d="M 964.638695 972 
L 965.22135 957.492537 
L 967.101398 935.731343 
L 967.853424 928.477612 
L 968.857362 921.223881 
L 971.382137 906.716418 
L 972.867408 899.462687 
L 978.152793 877.701493 
L 980.066997 870.447761 
L 982.332907 863.19403 
L 984.351624 855.940299 
L 986.741759 848.686567 
L 989.486269 841.432836 
L 992.421316 834.179104 
L 998.671592 819.671642 
L 1002.203226 812.41791 
L 1017.70144 783.402985 
L 1021.963502 776.149254 
L 1026.904762 768.895522 
L 1032.787616 760.515457 
L 1037.220708 754.38806 
L 1042.904088 747.134328 
L 1048.921038 739.880597 
L 1055.39736 732.626866 
L 1062.116997 725.373134 
L 1069.116038 718.119403 
L 1077.326008 710.865672 
L 1086.304431 703.61194 
L 1090.565944 700.355249 
L 1097.788235 695.302568 
L 1107.281581 689.104478 
L 1112.232817 686.239135 
L 1121.425127 681.850746 
L 1133.89969 676.342922 
L 1148.344272 671.317385 
L 1155.566563 669.338543 
L 1170.011146 666.42517 
L 1177.233437 665.190312 
L 1184.455728 664.722194 
L 1191.678019 663.645115 
L 1198.90031 663.531099 
L 1206.122601 663.259815 
L 1213.344892 663.229661 
L 1220.567183 663.496574 
L 1235.011765 664.338708 
L 1249.456347 665.493347 
L 1256.678638 666.565544 
L 1263.900929 667.380383 
L 1271.12322 668.694206 
L 1278.345511 669.839157 
L 1292.790093 672.489517 
L 1303.349904 674.597015 
L 1307.234675 675.327113 
L 1314.456966 677.027621 
L 1336.314954 681.850746 
L 1372.235294 690.244877 
L 1379.457585 692.217504 
L 1396.231509 696.358209 
L 1401.124458 697.572158 
L 1408.346749 699.185045 
L 1415.56904 701.087521 
L 1422.791331 702.711986 
L 1430.013622 704.630232 
L 1437.235913 706.219859 
L 1444.458204 708.108382 
L 1458.902786 711.443891 
L 1466.125077 712.992582 
L 1473.347368 714.736039 
L 1480.569659 716.182738 
L 1489.160854 718.119403 
L 1495.014241 719.370966 
L 1502.236533 721.105341 
L 1509.458824 722.59609 
L 1516.681115 724.203342 
L 1523.903406 725.545584 
L 1531.125697 727.089355 
L 1545.570279 729.884989 
L 1552.79257 731.433032 
L 1560.014861 732.676383 
L 1574.459443 735.328876 
L 1610.570898 741.644429 
L 1646.682353 747.337199 
L 1668.349226 750.558346 
L 1675.571517 751.479609 
L 1682.793808 752.588845 
L 1690.016099 753.500984 
L 1698.064913 754.38806 
L 1704.460681 755.375875 
L 1747.794427 760.593407 
L 1791.128173 764.991393 
L 1836.052186 768.895522 
L 1885.017957 772.607424 
L 1899.462539 773.481358 
L 1921.129412 774.907363 
L 1935.573994 775.693134 
L 1943.269866 776.149254 
L 1950.018576 776.656955 
L 1964.463158 777.268687 
L 1978.90774 778.126053 
L 2000.574613 779.273342 
L 2007.796904 779.522051 
L 2022.241486 780.15119 
L 2072.797523 782.230005 
L 2087.242105 782.676597 
L 2101.686687 783.2234 
L 2123.35356 783.775928 
L 2137.798142 784.273882 
L 2159.465015 784.759586 
L 2166.687307 784.91148 
L 2173.909598 785.177025 
L 2195.576471 785.54623 
L 2202.798762 785.809505 
L 2210.021053 785.800722 
L 2231.687926 786.214679 
L 2238.910217 786.246072 
L 2253.354799 786.428812 
L 2296.688545 786.805267 
L 2311.133127 786.880079 
L 2332.8 786.955067 
L 2332.8 786.955067 
" clip-path="url(#p0e04d335a7)" style="fill: none; stroke-dasharray: 5.55,2.4; stroke-dashoffset: 0; stroke: #ffffff; stroke-opacity: 0.3; stroke-width: 1.5"/>
    <path d="M 772.664478 972 
L 773.160845 957.492537 
L 774.298056 942.985075 
L 775.569312 928.477612 
L 776.447514 921.223881 
L 778.669764 906.716418 
L 780.00743 899.239534 
L 784.366773 877.701493 
L 785.997056 870.447761 
L 791.696456 848.686567 
L 796.22314 834.179104 
L 803.594752 812.41791 
L 811.887121 790.656716 
L 817.52968 776.149254 
L 830.563467 746.518438 
L 837.785759 730.643008 
L 854.414684 696.358209 
L 859.452632 686.480818 
L 869.609571 667.343284 
L 873.897214 659.672305 
L 881.363712 645.58209 
L 885.512091 638.328358 
L 893.539318 623.820896 
L 910.637485 594.80597 
L 917.23096 584.052707 
L 919.50785 580.298507 
L 938.897833 549.478266 
L 957.568976 522.268657 
L 968.15923 507.761194 
L 975.009288 498.846209 
L 985.32304 486 
L 991.341619 478.746269 
L 997.750762 471.492537 
L 1011.77274 456.985075 
L 1019.154892 449.731343 
L 1025.565325 444.119823 
L 1036.955333 435.223881 
L 1040.009907 433.002016 
L 1047.713491 427.970149 
L 1061.67678 420.050636 
L 1068.899071 416.701389 
L 1076.121362 413.847642 
L 1083.343653 411.881713 
L 1090.565944 410.170315 
L 1097.788235 408.967413 
L 1105.010526 408.111752 
L 1112.232817 407.679762 
L 1119.455108 407.947542 
L 1126.677399 408.586822 
L 1133.89969 409.383867 
L 1148.344272 412.290415 
L 1155.566563 414.229485 
L 1173.864806 420.716418 
L 1177.233437 421.967886 
L 1184.455728 425.313717 
L 1191.678019 428.205636 
L 1198.90031 431.848482 
L 1206.122601 435.349594 
L 1213.344892 439.090923 
L 1235.011765 451.164309 
L 1244.854425 456.985075 
L 1249.456347 459.517793 
L 1257.145906 464.238806 
L 1263.900929 468.202548 
L 1271.12322 472.761267 
L 1285.567802 481.438563 
L 1321.679257 503.392154 
L 1343.34613 516.294117 
L 1353.788868 522.268657 
L 1357.790712 524.466692 
L 1379.548798 536.776119 
L 1393.902167 544.389886 
L 1401.124458 548.187697 
L 1408.346749 551.814637 
L 1415.56904 555.660431 
L 1444.458204 569.779303 
L 1458.902786 576.422583 
L 1467.724995 580.298507 
L 1473.347368 582.890074 
L 1502.236533 595.080593 
L 1523.903406 603.480651 
L 1531.125697 606.293746 
L 1545.570279 611.541782 
L 1552.79257 614.226932 
L 1588.904025 626.18343 
L 1617.793189 634.999955 
L 1632.237771 639.150629 
L 1656.356771 645.58209 
L 1661.126935 646.764263 
L 1668.349226 648.699426 
L 1704.460681 657.248466 
L 1726.127554 661.889296 
L 1747.794427 666.261493 
L 1776.683591 671.581558 
L 1805.572755 676.505743 
L 1834.46192 680.894429 
L 1870.573375 685.875959 
L 1906.68483 690.287538 
L 1935.573994 693.471835 
L 1957.240867 695.684412 
L 1971.685449 697.052211 
L 1986.130031 698.403126 
L 2036.686068 702.452658 
L 2052.861322 703.61194 
L 2065.575232 704.462845 
L 2087.242105 705.781202 
L 2101.686687 706.667417 
L 2173.909598 709.961014 
L 2195.576471 710.646612 
L 2202.798762 710.964354 
L 2210.021053 711.078903 
L 2231.687926 711.705143 
L 2303.910836 712.758109 
L 2318.355418 712.894151 
L 2332.8 712.944339 
L 2332.8 712.944339 
" clip-path="url(#p0e04d335a7)" style="fill: none; stroke-dasharray: 5.55,2.4; stroke-dashoffset: 0; stroke: #ffffff; stroke-opacity: 0.3; stroke-width: 1.5"/>
    <path d="M 628.161515 972 
L 628.712245 957.492537 
L 629.989832 942.985075 
L 630.689966 935.731343 
L 631.510198 928.477612 
L 632.542114 921.223881 
L 633.773022 913.970149 
L 635.56161 904.711183 
L 636.672776 899.462687 
L 640.168351 884.955224 
L 644.089816 870.447761 
L 650.902852 848.686567 
L 656.057281 834.179104 
L 658.88475 826.925373 
L 664.673409 812.41791 
L 671.673065 795.879621 
L 678.895356 779.264103 
L 680.274047 776.149254 
L 697.84576 739.880597 
L 705.158392 725.373134 
L 719.74358 696.358209 
L 731.198943 674.597015 
L 738.961625 660.089552 
L 743.895975 650.818916 
L 751.118266 636.925752 
L 758.340557 623.177426 
L 761.937162 616.567164 
L 765.736036 609.313433 
L 773.191519 594.80597 
L 780.00743 581.899274 
L 787.229721 567.710071 
L 794.452012 553.613209 
L 799.329752 544.029851 
L 808.896594 525.173783 
L 821.203391 500.507463 
L 842.461942 456.985075 
L 845.808202 449.731343 
L 852.230341 436.286157 
L 876.52992 384.447761 
L 888.341796 357.562068 
L 895.803648 340.925373 
L 908.298532 311.910448 
L 917.339508 290.149254 
L 924.453251 272.164348 
L 942.55535 224.865672 
L 946.120124 215.380573 
L 947.948888 210.358209 
L 950.724251 203.104478 
L 953.342415 195.366492 
L 955.814011 188.597015 
L 965.787062 159.58209 
L 967.954682 152.328358 
L 972.688156 137.820896 
L 975.009288 130.045443 
L 979.017504 116.059701 
L 980.940978 108.80597 
L 982.624338 101.552239 
L 984.549007 94.298507 
L 987.768699 79.791045 
L 989.45387 70.872864 
L 990.720898 65.283582 
L 991.973865 58.029851 
L 993.07887 50.776119 
L 995.43501 29.014925 
L 996.139462 21.761194 
L 996.789453 7.253731 
L 997.020593 0 
M 1163.547748 0 
L 1164.221595 14.507463 
L 1164.726089 21.761194 
L 1165.58224 29.014925 
L 1167.725549 43.522388 
L 1168.92058 50.776119 
L 1172.030623 65.283582 
L 1174.169554 72.537313 
L 1176.135694 79.791045 
L 1177.233437 83.292909 
L 1180.421307 94.298507 
L 1185.35342 108.80597 
L 1188.113365 116.059701 
L 1191.678019 124.459789 
L 1193.956153 130.567164 
L 1196.972806 137.820896 
L 1206.765869 159.58209 
L 1210.363175 166.835821 
L 1214.14212 174.089552 
L 1217.784477 181.343284 
L 1227.789474 200.024623 
L 1229.461284 203.104478 
L 1235.011765 212.402916 
L 1237.970307 217.61194 
L 1246.90722 232.119403 
L 1249.456347 235.933053 
L 1251.584678 239.373134 
L 1260.975035 253.880597 
L 1265.906916 261.134328 
L 1276.009464 275.641791 
L 1286.364572 290.149254 
L 1300.012384 307.998746 
L 1303.175928 311.910448 
L 1321.679257 333.968486 
L 1328.901548 342.098536 
L 1336.123839 349.958491 
L 1348.183642 362.686567 
L 1355.247247 369.940299 
L 1377.554072 391.701493 
L 1386.679876 400.10729 
L 1393.902167 406.538487 
L 1401.93886 413.462687 
L 1419.457611 427.970149 
L 1422.791331 430.539261 
L 1430.013622 436.298112 
L 1447.986496 449.731343 
L 1458.902786 457.607606 
L 1480.569659 472.16669 
L 1490.842372 478.746269 
L 1509.458824 490.135853 
L 1516.681115 494.444727 
L 1545.570279 510.360648 
L 1554.334688 515.014925 
L 1574.459443 524.810056 
L 1588.904025 531.601044 
L 1603.348607 538.032044 
L 1617.793189 544.037561 
L 1632.237771 549.886682 
L 1654.958546 558.537313 
L 1682.793808 568.326099 
L 1690.016099 570.679446 
L 1697.74354 573.044776 
L 1704.460681 575.274349 
L 1726.127554 581.746306 
L 1747.794427 587.90655 
L 1762.239009 591.639553 
L 1783.905882 597.01384 
L 1798.350464 600.39607 
L 1812.795046 603.625985 
L 1827.239628 606.702812 
L 1841.684211 609.622736 
L 1856.128793 612.428006 
L 1870.573375 615.078388 
L 1892.240248 618.807367 
L 1913.907121 622.296428 
L 1923.821349 623.820896 
L 1942.796285 626.585921 
L 1950.018576 627.681145 
L 2007.796904 634.824571 
L 2022.241486 636.390939 
L 2051.13065 639.331947 
L 2101.686687 643.610235 
L 2152.242724 646.918562 
L 2202.798762 649.46489 
L 2217.243344 649.9702 
L 2246.132508 650.903802 
L 2289.466254 651.80102 
L 2325.577709 652.099022 
L 2332.8 652.146313 
L 2332.8 652.146313 
" clip-path="url(#p0e04d335a7)" style="fill: none; stroke-dasharray: 5.55,2.4; stroke-dashoffset: 0; stroke: #ffffff; stroke-opacity: 0.3; stroke-width: 1.5"/>
    <path d="M 496.395685 972 
L 497.09536 957.492537 
L 498.33808 946.285839 
L 499.653434 935.731343 
L 500.7295 928.477612 
L 502.06898 921.223881 
L 503.654709 913.970149 
L 505.560372 906.246665 
L 507.40431 899.462687 
L 512.782663 882.296112 
L 514.306782 877.701493 
L 516.872526 870.447761 
L 522.538975 855.940299 
L 527.227245 844.892205 
L 528.754006 841.432836 
L 534.449536 829.329176 
L 541.671827 814.32293 
L 542.618327 812.41791 
L 550.248573 797.910448 
L 557.962275 783.402985 
L 563.3387 773.724308 
L 577.783282 748.752915 
L 595.918258 718.119403 
L 606.672446 700.025876 
L 608.826318 696.358209 
L 635.56161 652.166822 
L 656.528962 616.567164 
L 678.895356 577.232506 
L 689.24111 558.537313 
L 693.339938 550.663421 
L 700.850522 536.776119 
L 712.159606 515.014925 
L 733.639496 471.492537 
L 743.834157 449.731343 
L 747.129403 442.477612 
L 766.112797 398.955224 
L 772.785139 382.526141 
L 780.00743 364.316744 
L 788.802452 340.925373 
L 796.517598 319.164179 
L 801.674303 303.981718 
L 808.346899 282.895522 
L 814.812223 261.134328 
L 818.857181 246.626866 
L 823.341176 229.811155 
L 830.563467 200.508935 
L 833.248504 188.597015 
L 837.718324 166.835821 
L 840.472518 152.328358 
L 843.054481 137.820896 
L 845.313429 123.313433 
L 847.447105 108.80597 
L 850.87292 79.791045 
L 852.828181 58.029851 
L 853.347283 50.776119 
L 854.438007 29.014925 
L 854.771738 21.761194 
L 855.073358 7.253731 
L 855.151028 0 
M 1321.157528 0 
L 1321.568962 14.507463 
L 1321.897093 21.761194 
L 1322.368741 29.014925 
L 1323.66821 43.522388 
L 1324.433776 50.776119 
L 1325.34832 58.029851 
L 1326.394076 65.283582 
L 1330.418074 87.044776 
L 1331.922684 94.298507 
L 1335.365307 108.80597 
L 1337.2298 116.059701 
L 1341.366249 130.567164 
L 1346.1005 145.074627 
L 1351.117731 159.58209 
L 1353.931593 166.835821 
L 1359.931452 181.343284 
L 1365.013003 192.924988 
L 1366.336241 195.850746 
L 1369.772516 203.104478 
L 1373.451678 210.358209 
L 1377.046629 217.61194 
L 1384.83847 232.119403 
L 1389.031093 239.373134 
L 1397.791887 253.880597 
L 1402.44278 261.134328 
L 1417.169386 282.895522 
L 1427.821608 297.402985 
L 1433.389961 304.656716 
L 1445.391713 319.164179 
L 1458.184553 333.671642 
L 1458.902786 334.451244 
L 1472.003436 348.179104 
L 1473.347368 349.537214 
L 1487.79195 363.512816 
L 1502.653248 377.19403 
L 1516.681115 389.272378 
L 1531.125697 400.817501 
L 1547.909439 413.462687 
L 1552.79257 417.065056 
L 1560.014861 422.076511 
L 1568.682523 427.970149 
L 1588.904025 440.979666 
L 1596.126316 445.318189 
L 1610.570898 453.833704 
L 1625.01548 461.821438 
L 1639.460062 469.417782 
L 1646.682353 473.14536 
L 1658.313656 478.746269 
L 1682.793808 490.085886 
L 1690.132034 493.253731 
L 1697.23839 496.148328 
L 1707.585212 500.507463 
L 1726.127554 507.823778 
L 1745.647166 515.014925 
L 1747.794427 515.787289 
L 1762.239009 520.657049 
L 1776.683591 525.37683 
L 1798.350464 531.999513 
L 1805.572755 534.149378 
L 1827.239628 540.098537 
L 1842.502154 544.029851 
L 1856.128793 547.412169 
L 1872.682603 551.283582 
L 1892.240248 555.583585 
L 1913.907121 560.032409 
L 1921.129412 561.484047 
L 1957.240867 567.992171 
L 1993.352322 573.703787 
L 2000.574613 574.833043 
L 2043.908359 580.570047 
L 2065.575232 583.093677 
L 2080.019814 584.623438 
L 2101.686687 586.844705 
L 2137.798142 589.936764 
L 2173.909598 592.487046 
L 2210.021053 594.444001 
L 2231.687926 595.44636 
L 2275.021672 596.807025 
L 2296.688545 597.207957 
L 2332.8 597.529811 
L 2332.8 597.529811 
" clip-path="url(#p0e04d335a7)" style="fill: none; stroke-dasharray: 5.55,2.4; stroke-dashoffset: 0; stroke: #ffffff; stroke-opacity: 0.3; stroke-width: 1.5"/>
    <path d="M 357.443894 972 
L 358.388905 957.492537 
L 359.416682 950.238806 
L 361.114551 940.37095 
L 361.999265 935.731343 
L 363.613815 928.477612 
L 365.607798 921.223881 
L 368.336842 912.930004 
L 370.496628 906.716418 
L 373.239704 899.462687 
L 379.432592 884.955224 
L 382.829721 877.701493 
L 386.382779 870.447761 
L 394.308616 855.940299 
L 404.448297 838.698189 
L 407.29012 834.179104 
L 418.892879 816.442903 
L 421.51211 812.41791 
L 426.422729 805.164179 
L 436.64624 790.656716 
L 447.782043 774.814324 
L 478.92184 732.626866 
L 484.433643 725.373134 
L 495.066119 710.865672 
L 500.418375 703.61194 
L 505.654254 696.358209 
L 516.462526 681.850746 
L 537.32754 652.835821 
L 542.341128 645.58209 
L 548.894118 636.337662 
L 567.353601 609.313433 
L 585.005573 582.290363 
L 599.977236 558.537313 
L 617.219082 529.522388 
L 625.616016 515.014925 
L 637.614662 493.253731 
L 645.44501 478.746269 
L 652.979423 464.238806 
L 664.450774 441.054786 
L 674.026969 420.716418 
L 680.667423 406.208955 
L 687.029759 391.701493 
L 690.121078 384.447761 
L 701.777706 355.432836 
L 707.408154 340.925373 
L 712.656586 326.41791 
L 720.181577 304.656716 
L 727.04839 282.895522 
L 731.3207 268.38806 
L 735.446487 253.880597 
L 743.027193 224.865672 
L 744.811889 217.61194 
L 749.725737 195.850746 
L 752.720865 181.343284 
L 756.909096 159.58209 
L 761.682122 130.567164 
L 764.644432 108.80597 
L 767.767429 79.791045 
L 769.523419 58.029851 
L 770.351802 43.522388 
L 771.27636 21.761194 
L 771.554368 7.253731 
L 771.617269 0 
M 1422.398354 0 
L 1422.823614 14.507463 
L 1423.170567 21.761194 
L 1423.63728 29.014925 
L 1424.970057 43.522388 
L 1425.777034 50.776119 
L 1426.715772 58.029851 
L 1427.786339 65.283582 
L 1430.433549 79.791045 
L 1433.536423 94.298507 
L 1435.299457 101.552239 
L 1439.147899 116.059701 
L 1443.529054 130.567164 
L 1445.968235 137.820896 
L 1451.680495 153.599317 
L 1453.922301 159.58209 
L 1458.902786 171.455686 
L 1463.362834 181.343284 
L 1470.314001 195.850746 
L 1474.029839 203.104478 
L 1482.110408 217.61194 
L 1487.79195 227.30322 
L 1490.744284 232.119403 
L 1500.242332 246.626866 
L 1505.134015 253.880597 
L 1515.705687 268.38806 
L 1516.681115 269.684608 
L 1527.08685 282.895522 
L 1533.00344 290.149254 
L 1545.777299 304.656716 
L 1552.79257 312.241303 
L 1560.014861 319.504906 
L 1567.237152 326.57065 
L 1574.781068 333.671642 
L 1582.745421 340.925373 
L 1591.076548 348.179104 
L 1603.348607 358.298368 
L 1610.570898 363.987825 
L 1625.01548 374.88134 
L 1632.237771 380.089436 
L 1646.682353 390.027307 
L 1653.904644 394.736472 
L 1672.414431 406.208955 
L 1690.016099 416.394408 
L 1698.094087 420.716418 
L 1704.460681 424.215373 
L 1718.905263 431.490131 
L 1733.349845 438.498129 
L 1747.794427 445.156859 
L 1762.239009 451.332892 
L 1776.683591 457.304308 
L 1794.69231 464.238806 
L 1805.572755 468.293975 
L 1820.017337 473.334044 
L 1836.450259 478.746269 
L 1848.906502 482.67304 
L 1863.351084 487.012276 
L 1885.441031 493.253731 
L 1906.68483 498.751648 
L 1928.351703 503.987604 
L 1950.018576 508.961482 
L 1986.130031 516.152854 
L 2015.019195 521.256804 
L 2043.908359 525.825955 
L 2065.575232 528.873259 
L 2080.019814 530.731607 
L 2101.686687 533.40873 
L 2137.798142 537.157599 
L 2173.909598 540.236766 
L 2202.798762 542.250225 
L 2253.354799 544.709275 
L 2282.243963 545.648028 
L 2303.910836 546.029178 
L 2318.355418 546.239347 
L 2332.8 546.318457 
L 2332.8 546.318457 
" clip-path="url(#p0e04d335a7)" style="fill: none; stroke-dasharray: 5.55,2.4; stroke-dashoffset: 0; stroke: #ffffff; stroke-opacity: 0.3; stroke-width: 1.5"/>
    <path d="M 168.747547 972 
L 169.620158 964.746269 
L 170.720912 957.492537 
L 173.334985 948.935602 
L 175.438213 942.985075 
L 178.290965 935.731343 
L 181.652259 928.477612 
L 185.87091 921.223881 
L 187.779567 918.434805 
L 190.417403 913.970149 
L 195.267219 906.716418 
L 200.805509 899.462687 
L 202.224149 897.812168 
L 212.512407 884.955224 
L 225.186219 870.447761 
L 238.335604 856.706875 
L 239.029891 855.940299 
L 253.139395 841.432836 
L 260.443985 834.179104 
L 282.917741 812.41791 
L 296.113932 799.564996 
L 312.81494 783.402985 
L 335.248939 761.641791 
L 342.799949 754.38806 
L 357.709045 739.880597 
L 364.913733 732.626866 
L 368.336842 729.313776 
L 382.781424 714.511671 
L 418.892879 676.533004 
L 427.289701 667.343284 
L 433.984968 660.089552 
L 446.688424 645.58209 
L 455.004334 635.979717 
L 469.448916 618.595728 
L 477.014357 609.313433 
L 483.893498 600.821756 
L 498.33808 582.204643 
L 515.870992 558.537313 
L 531.0728 536.776119 
L 535.95631 529.522388 
L 550.1923 507.761194 
L 559.301098 493.253731 
L 568.144411 478.746269 
L 577.783282 462.279291 
L 580.7765 456.985075 
L 592.551601 435.223881 
L 600.121267 420.716418 
L 607.384982 406.208955 
L 614.338876 391.701493 
L 617.77381 384.447761 
L 624.271981 369.940299 
L 633.534843 348.179104 
L 639.398857 333.671642 
L 644.98008 319.164179 
L 650.278554 304.656716 
L 655.21946 290.149254 
L 662.162883 268.38806 
L 666.553375 253.880597 
L 672.586655 232.119403 
L 678.895356 206.99941 
L 679.86384 203.104478 
L 683.122595 188.597015 
L 686.117647 173.996019 
L 688.936263 159.58209 
L 692.658543 137.820896 
L 694.850755 123.313433 
L 696.854667 108.80597 
L 700.069732 79.791045 
L 701.880922 58.029851 
L 702.754983 43.522388 
L 703.713526 21.761194 
L 704.00881 7.253731 
L 704.070204 0 
M 1510.053656 0 
L 1510.507802 14.507463 
L 1510.905267 21.761194 
L 1511.416504 29.014925 
L 1512.905547 43.522388 
L 1513.823479 50.776119 
L 1514.874129 58.029851 
L 1516.681115 68.339952 
L 1519.059382 79.791045 
L 1520.749733 87.044776 
L 1523.903406 99.209177 
L 1524.525057 101.552239 
L 1526.598485 108.80597 
L 1528.799828 116.059701 
L 1531.206875 123.313433 
L 1533.770949 130.567164 
L 1538.347988 142.20224 
L 1542.472027 152.328358 
L 1545.574669 159.58209 
L 1548.90387 166.835821 
L 1552.79257 174.792221 
L 1556.187367 181.343284 
L 1564.198007 195.850746 
L 1568.516054 203.104478 
L 1577.780462 217.61194 
L 1582.700539 224.865672 
L 1588.904025 233.648646 
L 1596.126316 243.063239 
L 1604.634561 253.880597 
L 1610.746535 261.134328 
L 1623.826327 275.641791 
L 1630.653371 282.895522 
L 1637.827983 290.149254 
L 1646.682353 298.702538 
L 1653.904644 305.355472 
L 1670.101468 319.164179 
L 1682.793808 329.262246 
L 1690.016099 334.734233 
L 1709.025189 348.179104 
L 1720.109881 355.432836 
L 1731.656999 362.686567 
L 1743.710704 369.940299 
L 1747.794427 372.332965 
L 1756.469967 377.19403 
L 1770.040413 384.447761 
L 1776.683591 387.904867 
L 1791.128173 395.032782 
L 1805.572755 401.776355 
L 1820.017337 408.099134 
L 1834.46192 414.107964 
L 1851.374876 420.716418 
L 1863.351084 425.142703 
L 1877.795666 430.179146 
L 1885.017957 432.653844 
L 1906.68483 439.524884 
L 1921.129412 443.857609 
L 1950.018576 451.801658 
L 1978.90774 458.827675 
L 1993.352322 462.052385 
L 2003.361366 464.238806 
L 2029.463777 469.441925 
L 2043.908359 472.150927 
L 2058.352941 474.566547 
L 2072.797523 476.930142 
L 2101.686687 481.17388 
L 2130.575851 484.808358 
L 2152.242724 487.198479 
L 2181.131889 489.933049 
L 2202.798762 491.728793 
L 2246.132508 494.361217 
L 2275.021672 495.554614 
L 2289.466254 495.975292 
L 2311.133127 496.401084 
L 2332.8 496.581165 
L 2332.8 496.581165 
" clip-path="url(#p0e04d335a7)" style="fill: none; stroke-dasharray: 5.55,2.4; stroke-dashoffset: 0; stroke: #ffffff; stroke-opacity: 0.3; stroke-width: 1.5"/>
    <path d="M 0 806.874414 
L 7.222291 806.82203 
L 14.444582 806.473745 
L 28.889164 805.245369 
L 43.333746 803.453712 
L 57.778328 800.968113 
L 65.000619 799.444375 
L 79.445201 796.070568 
L 86.667492 794.140023 
L 98.241873 790.656716 
L 101.112074 789.778901 
L 108.334365 787.430879 
L 130.001238 779.376444 
L 138.117524 776.149254 
L 151.668111 770.481029 
L 166.112693 763.93761 
L 180.557276 756.757301 
L 187.779567 753.247207 
L 199.063523 747.134328 
L 202.224149 745.488348 
L 212.180035 739.880597 
L 216.668731 737.289341 
L 238.335604 724.098379 
L 252.780186 714.655183 
L 269.001341 703.61194 
L 281.66935 694.697986 
L 303.336223 678.687608 
L 317.780805 667.303752 
L 332.225387 655.431738 
L 339.447678 649.352106 
L 353.89226 636.791026 
L 375.798079 616.567164 
L 383.223696 609.313433 
L 397.761824 594.80597 
L 411.670588 580.225361 
L 424.827266 565.791045 
L 433.337461 556.286109 
L 449.755116 536.776119 
L 461.328019 522.268657 
L 466.942497 515.014925 
L 483.893498 492.269661 
L 498.33808 471.643213 
L 505.560372 460.798429 
L 508.036536 456.985075 
L 517.140432 442.477612 
L 525.867456 427.970149 
L 534.449536 413.163409 
L 542.282313 398.955224 
L 550.023701 384.447761 
L 557.258718 369.940299 
L 564.212947 355.432836 
L 570.868421 340.925373 
L 577.783282 324.964898 
L 583.184739 311.910448 
L 586.067672 304.656716 
L 592.227864 288.150468 
L 596.662111 275.641791 
L 601.522012 261.134328 
L 606.067492 246.626866 
L 610.396349 232.119403 
L 616.325708 210.358209 
L 618.262291 203.104478 
L 621.773211 188.597015 
L 624.983063 174.089552 
L 628.339319 157.921012 
L 632.053439 137.820896 
L 634.385383 123.313433 
L 636.508667 108.80597 
L 639.947387 79.791045 
L 641.855943 58.029851 
L 642.785804 43.522388 
L 643.477488 29.014925 
L 643.791721 21.761194 
L 644.10723 7.253731 
L 644.169168 0 
M 1593.036429 0 
L 1593.235175 7.253731 
L 1593.563884 14.507463 
L 1594.038352 21.761194 
L 1594.629393 29.014925 
L 1596.368922 43.522388 
L 1597.441364 50.776119 
L 1598.654828 58.029851 
L 1600.035816 65.283582 
L 1603.392506 79.791045 
L 1605.304264 87.044776 
L 1607.365423 94.298507 
L 1610.570898 104.46019 
L 1612.039955 108.80597 
L 1614.638583 116.059701 
L 1620.400658 130.567164 
L 1625.01548 140.926462 
L 1630.438563 152.328358 
L 1634.105375 159.58209 
L 1639.460062 169.191776 
L 1642.269556 174.089552 
L 1646.682353 181.475329 
L 1653.904644 192.688066 
L 1656.038844 195.850746 
L 1661.211228 203.104478 
L 1668.349226 212.753243 
L 1672.101819 217.61194 
L 1682.793808 230.593538 
L 1684.104286 232.119403 
L 1690.64296 239.373134 
L 1697.655784 246.626866 
L 1704.489611 253.880597 
L 1712.005691 261.134328 
L 1726.127554 273.961902 
L 1733.349845 280.219188 
L 1740.572136 286.238648 
L 1747.794427 292.071668 
L 1755.016718 297.551202 
L 1764.787542 304.656716 
L 1776.683591 312.852683 
L 1791.128173 322.133224 
L 1805.572755 330.865249 
L 1812.795046 334.978575 
L 1827.239628 342.846408 
L 1841.684211 350.210988 
L 1856.128793 357.143553 
L 1870.573375 363.634881 
L 1885.270854 369.940299 
L 1906.68483 378.375844 
L 1923.212564 384.447761 
L 1950.018576 393.495678 
L 1971.685449 399.985907 
L 1986.130031 404.096645 
L 2007.796904 409.754169 
L 2023.098699 413.462687 
L 2043.908359 418.165593 
L 2058.352941 421.095576 
L 2072.797523 423.930614 
L 2101.686687 429.015082 
L 2130.575851 433.345407 
L 2145.020433 435.253595 
L 2159.465015 437.028732 
L 2181.131889 439.432192 
L 2202.798762 441.549101 
L 2238.910217 444.193563 
L 2253.354799 445.034479 
L 2275.021672 446.05869 
L 2289.466254 446.551968 
L 2311.133127 447.053081 
L 2332.8 447.261065 
L 2332.8 447.261065 
" clip-path="url(#p0e04d335a7)" style="fill: none; stroke: #ffffff; stroke-opacity: 0.3; stroke-width: 1.5"/>
    <path d="M 0 704.663094 
L 7.222291 704.610837 
L 14.444582 704.343516 
L 28.889164 703.404275 
L 43.333746 701.975967 
L 57.778328 699.994213 
L 65.000619 698.785064 
L 79.445201 696.061059 
L 86.667492 694.545401 
L 93.889783 692.883726 
L 101.112074 691.102958 
L 108.673286 689.104478 
L 122.778947 685.009715 
L 137.223529 680.370239 
L 152.930163 674.597015 
L 166.112693 669.425413 
L 187.779567 659.963727 
L 209.44644 649.252341 
L 223.891022 641.473993 
L 231.113313 637.436931 
L 241.896239 631.074627 
L 245.557895 628.864752 
L 260.002477 619.811409 
L 267.224768 615.080476 
L 281.66935 605.198009 
L 303.336223 589.228116 
L 314.594388 580.298507 
L 317.780805 577.741909 
L 332.225387 565.600317 
L 340.418484 558.537313 
L 356.237938 544.029851 
L 371.19278 529.522388 
L 378.310396 522.268657 
L 385.281072 515.014925 
L 398.626309 500.507463 
L 411.670588 485.560084 
L 418.892879 476.935661 
L 429.192345 464.238806 
L 434.838804 456.985075 
L 447.782043 439.400453 
L 455.798894 427.970149 
L 465.503621 413.462687 
L 474.77395 398.955224 
L 483.893498 384.146871 
L 491.949169 369.940299 
L 499.867617 355.432836 
L 507.400374 340.925373 
L 514.502417 326.41791 
L 521.238286 311.910448 
L 524.461238 304.656716 
L 530.576519 290.149254 
L 536.308206 275.641791 
L 544.2854 253.880597 
L 549.210342 239.373134 
L 551.589979 232.119403 
L 558.121901 210.358209 
L 560.241775 203.104478 
L 564.095504 188.597015 
L 567.599118 174.089552 
L 570.911486 159.58209 
L 575.323936 137.820896 
L 577.878498 123.313433 
L 580.186952 108.80597 
L 583.083892 87.044776 
L 584.624215 72.537313 
L 585.949212 58.029851 
L 586.960359 43.522388 
L 587.70851 29.014925 
L 588.043406 21.761194 
L 588.387769 7.253731 
L 588.452702 0 
M 1675.88368 0 
L 1676.108044 7.253731 
L 1676.488248 14.507463 
L 1677.044628 21.761194 
L 1677.720603 29.014925 
L 1678.656002 36.268657 
L 1679.731629 43.522388 
L 1681.000786 50.776119 
L 1682.793808 59.688834 
L 1684.062521 65.283582 
L 1688.034276 79.791045 
L 1690.286392 87.044776 
L 1692.773742 94.298507 
L 1695.458403 101.552239 
L 1701.329398 116.059701 
L 1704.576285 123.313433 
L 1708.121599 130.567164 
L 1711.966231 137.820896 
L 1718.905263 150.060903 
L 1720.21509 152.328358 
L 1726.127554 161.963212 
L 1729.330537 166.835821 
L 1734.38076 174.089552 
L 1740.572136 182.484565 
L 1747.794427 191.810043 
L 1751.085931 195.850746 
L 1757.372109 203.104478 
L 1764.060946 210.358209 
L 1770.914809 217.61194 
L 1778.181791 224.865672 
L 1785.878923 232.119403 
L 1794.026867 239.373134 
L 1805.572755 249.050515 
L 1812.795046 254.799838 
L 1821.12133 261.134328 
L 1831.233652 268.38806 
L 1841.856398 275.641791 
L 1852.985664 282.895522 
L 1864.776051 290.149254 
L 1877.795666 297.556647 
L 1885.017957 301.553225 
L 1892.240248 305.306037 
L 1906.68483 312.50306 
L 1921.129412 319.251333 
L 1942.796285 328.482303 
L 1950.018576 331.499465 
L 1964.463158 336.90958 
L 1978.90774 342.15826 
L 1986.130031 344.646332 
L 2000.574613 349.399554 
L 2022.241486 355.865131 
L 2036.686068 359.854686 
L 2051.13065 363.634149 
L 2078.036684 369.940299 
L 2094.464396 373.45355 
L 2101.686687 374.939421 
L 2123.35356 378.882996 
L 2137.798142 381.361396 
L 2159.465015 384.60638 
L 2181.131889 387.47322 
L 2202.798762 389.989799 
L 2231.687926 392.63573 
L 2253.354799 394.162774 
L 2275.021672 395.380661 
L 2289.466254 395.968059 
L 2311.133127 396.566422 
L 2325.577709 396.752728 
L 2332.8 396.81126 
L 2332.8 396.81126 
" clip-path="url(#p0e04d335a7)" style="fill: none; stroke: #ffffff; stroke-opacity: 0.3; stroke-width: 1.5"/>
    <path d="M 0 625.865869 
L 7.222291 625.806955 
L 14.444582 625.551363 
L 28.889164 624.653592 
L 43.333746 623.281961 
L 57.778328 621.402877 
L 65.000619 620.260665 
L 79.445201 617.66377 
L 86.667492 616.156981 
L 93.889783 614.500033 
L 101.112074 612.723629 
L 108.334365 610.827407 
L 122.778947 606.623382 
L 137.223529 601.974453 
L 151.668111 596.791776 
L 166.112693 591.09001 
L 180.557276 584.705063 
L 190.129896 580.298507 
L 204.705349 573.044776 
L 209.44644 570.579944 
L 218.226934 565.791045 
L 231.113313 558.447915 
L 242.718341 551.283582 
L 245.557895 549.498698 
L 253.972469 544.029851 
L 264.680495 536.776119 
L 267.224768 534.999879 
L 281.66935 524.540574 
L 296.113932 513.271773 
L 303.336223 507.41307 
L 311.510273 500.507463 
L 319.753007 493.253731 
L 332.225387 481.807697 
L 339.447678 474.962985 
L 350.290702 464.238806 
L 353.89226 460.554723 
L 363.859757 449.731343 
L 370.44372 442.477612 
L 376.705118 435.223881 
L 382.812056 427.970149 
L 397.226006 410.031766 
L 405.541209 398.955224 
L 411.670588 390.599097 
L 418.892879 380.197654 
L 426.11517 369.312217 
L 434.942373 355.432836 
L 440.559752 346.201901 
L 447.83104 333.671642 
L 455.760349 319.164179 
L 462.226625 306.706992 
L 463.253159 304.656716 
L 470.163768 290.149254 
L 476.699059 275.641791 
L 483.893498 258.693647 
L 488.600834 246.626866 
L 493.993467 232.119403 
L 498.996085 217.61194 
L 503.681865 203.104478 
L 507.962674 188.597015 
L 511.879164 174.089552 
L 515.564292 159.58209 
L 520.004954 139.822861 
L 521.901038 130.567164 
L 524.552571 116.059701 
L 525.788989 108.80597 
L 528.987872 87.044776 
L 530.694627 72.537313 
L 532.151409 58.029851 
L 532.771762 50.776119 
L 533.727153 36.268657 
L 534.466423 21.761194 
L 534.846505 7.253731 
L 534.916119 0 
M 1762.26404 0 
L 1762.5342 7.253731 
L 1763.001081 14.507463 
L 1763.692959 21.761194 
L 1764.516414 29.014925 
L 1765.658414 36.268657 
L 1766.982246 43.522388 
L 1769.4613 54.554034 
L 1770.292821 58.029851 
L 1772.265686 65.283582 
L 1776.683591 78.83234 
L 1777.012826 79.791045 
L 1779.757668 87.044776 
L 1783.905882 96.954631 
L 1785.935343 101.552239 
L 1791.128173 112.128496 
L 1793.183524 116.059701 
L 1798.350464 125.11721 
L 1801.585427 130.567164 
L 1806.254059 137.820896 
L 1812.795046 147.214372 
L 1816.485723 152.328358 
L 1821.981654 159.58209 
L 1827.92978 166.835821 
L 1834.46192 174.254618 
L 1841.684211 182.006295 
L 1848.906502 189.325518 
L 1856.128793 196.291766 
L 1863.697965 203.104478 
L 1872.35136 210.358209 
L 1881.263138 217.61194 
L 1885.017957 220.510562 
L 1892.240248 225.785456 
L 1901.210027 232.119403 
L 1912.177827 239.373134 
L 1921.129412 244.973298 
L 1936.306484 253.880597 
L 1950.018576 261.467169 
L 1964.463158 268.577278 
L 1971.685449 272.061945 
L 1986.130031 278.67864 
L 2000.574613 284.870652 
L 2015.019195 290.548036 
L 2029.463777 295.777365 
L 2043.908359 300.752519 
L 2056.305938 304.656716 
L 2072.797523 309.524762 
L 2087.242105 313.429443 
L 2101.686687 317.117854 
L 2116.131269 320.408336 
L 2137.798142 324.982683 
L 2152.242724 327.707281 
L 2173.909598 331.387117 
L 2189.432494 333.671642 
L 2202.798762 335.507233 
L 2231.687926 338.708811 
L 2253.354799 340.570106 
L 2267.799381 341.586726 
L 2282.243963 342.417469 
L 2296.688545 343.012865 
L 2318.355418 343.605536 
L 2332.8 343.750797 
L 2332.8 343.750797 
" clip-path="url(#p0e04d335a7)" style="fill: none; stroke: #ffffff; stroke-opacity: 0.3; stroke-width: 1.5"/>
    <path d="M 0 555.39673 
L 7.222291 555.32798 
L 14.444582 555.062039 
L 28.889164 554.129213 
L 43.333746 552.685572 
L 57.778328 550.696243 
L 65.000619 549.503418 
L 79.445201 546.782465 
L 91.592309 544.029851 
L 93.889783 543.48192 
L 101.112074 541.637995 
L 108.334365 539.668005 
L 122.778947 535.270155 
L 137.223529 530.360096 
L 151.668111 524.848994 
L 166.112693 518.796478 
L 180.557276 512.00931 
L 189.222598 507.761194 
L 202.877453 500.507463 
L 209.44644 496.822422 
L 216.668731 492.58626 
L 231.113313 483.637899 
L 238.607146 478.746269 
L 249.093774 471.492537 
L 252.780186 468.889512 
L 260.002477 463.621344 
L 268.582024 456.985075 
L 281.66935 446.347534 
L 288.891641 440.06316 
L 302.272525 427.970149 
L 303.336223 426.981195 
L 310.558514 420.003751 
L 317.780805 412.811545 
L 325.003096 405.310569 
L 332.225387 397.502265 
L 339.447678 389.453961 
L 346.669969 380.981656 
L 353.89226 372.198146 
L 361.210613 362.686567 
L 368.336842 353.276077 
L 375.559133 343.207972 
L 382.049454 333.671642 
L 386.792485 326.41791 
L 395.936303 311.910448 
L 400.245241 304.656716 
L 408.374823 290.149254 
L 412.234406 282.895522 
L 415.959633 275.641791 
L 423.023936 261.134328 
L 426.398332 253.880597 
L 432.787353 239.373134 
L 435.851023 232.119403 
L 441.534079 217.61194 
L 447.782043 200.484868 
L 451.736671 188.597015 
L 456.163483 174.089552 
L 460.318061 159.58209 
L 464.031928 145.074627 
L 467.417456 130.567164 
L 470.3892 116.059701 
L 471.781985 108.80597 
L 475.373252 87.044776 
L 477.286915 72.537313 
L 478.918578 58.029851 
L 479.616622 50.776119 
L 480.697373 36.268657 
L 481.523508 21.761194 
L 481.956961 7.253731 
L 482.034665 0 
M 1856.909963 0 
L 1857.241847 7.253731 
L 1857.824677 14.507463 
L 1858.698692 21.761194 
L 1859.720457 29.014925 
L 1861.139362 36.268657 
L 1863.351084 45.567783 
L 1864.796949 50.776119 
L 1867.023382 58.029851 
L 1869.559058 65.283582 
L 1872.515409 72.537313 
L 1875.658395 79.791045 
L 1879.122781 87.044776 
L 1882.887769 94.298507 
L 1886.996533 101.552239 
L 1892.240248 109.778056 
L 1896.477793 116.059701 
L 1901.773388 123.313433 
L 1907.416121 130.567164 
L 1913.907121 138.150097 
L 1921.129412 146.170438 
L 1928.351703 153.492056 
L 1935.573994 160.53619 
L 1942.796285 167.016765 
L 1951.097508 174.089552 
L 1960.612561 181.343284 
L 1971.685449 189.405016 
L 1981.088894 195.850746 
L 1986.130031 199.075875 
L 2000.574613 207.776855 
L 2015.019195 215.71852 
L 2022.241486 219.417636 
L 2033.432442 224.865672 
L 2043.908359 229.70821 
L 2051.13065 232.837804 
L 2067.394883 239.373134 
L 2080.019814 243.971541 
L 2094.464396 248.991409 
L 2101.686687 251.403513 
L 2116.131269 255.737261 
L 2135.59819 261.134328 
L 2145.020433 263.438856 
L 2152.242724 265.178288 
L 2173.909598 269.860818 
L 2188.35418 272.555521 
L 2206.584507 275.641791 
L 2231.687926 279.176879 
L 2253.354799 281.552879 
L 2268.273636 282.895522 
L 2282.243963 283.904153 
L 2296.688545 284.65986 
L 2318.355418 285.407365 
L 2332.8 285.589016 
L 2332.8 285.589016 
" clip-path="url(#p0e04d335a7)" style="fill: none; stroke: #ffffff; stroke-opacity: 0.3; stroke-width: 1.5"/>
    <path d="M 0 488.140306 
L 7.222291 488.060444 
L 14.444582 487.776682 
L 21.666873 487.336361 
L 28.889164 486.782542 
L 43.333746 485.242312 
L 57.778328 483.11929 
L 65.000619 481.835605 
L 79.445201 478.899677 
L 86.667492 477.194465 
L 93.889783 475.326234 
L 101.112074 473.322167 
L 108.334365 471.181486 
L 122.778947 466.438092 
L 130.001238 463.815338 
L 137.223529 461.08332 
L 151.668111 454.994043 
L 166.112693 448.227638 
L 180.557276 440.673686 
L 187.779567 436.775272 
L 202.521049 427.970149 
L 213.760585 420.716418 
L 216.668731 418.780679 
L 224.33716 413.462687 
L 234.348633 406.208955 
L 238.335604 403.190163 
L 245.557895 397.485379 
L 252.780186 391.564305 
L 261.087209 384.447761 
L 269.021786 377.19403 
L 276.669886 369.940299 
L 283.974444 362.686567 
L 290.903035 355.432836 
L 297.64666 348.179104 
L 304.129597 340.925373 
L 310.558514 333.344588 
L 317.780805 324.418111 
L 325.003096 315.041852 
L 332.225387 305.206477 
L 332.620272 304.656716 
L 342.496924 290.149254 
L 351.645614 275.641791 
L 355.907172 268.38806 
L 364.034786 253.880597 
L 368.336842 245.800076 
L 375.559133 231.303618 
L 382.781424 215.335549 
L 387.989491 203.104478 
L 393.657989 188.597015 
L 397.226006 178.729004 
L 401.230793 166.835821 
L 404.448297 156.614654 
L 407.862649 145.074627 
L 409.897654 137.820896 
L 411.804505 130.567164 
L 415.204292 116.059701 
L 416.787207 108.80597 
L 420.866508 87.044776 
L 423.033553 72.537313 
L 424.866026 58.029851 
L 426.11517 45.584308 
L 426.875673 36.268657 
L 427.800402 21.761194 
L 428.290459 7.253731 
L 428.376902 0 
M 1968.494228 0 
L 1968.936154 7.253731 
L 1969.722516 14.507463 
L 1971.685449 25.833892 
L 1972.302461 29.014925 
L 1974.256827 36.268657 
L 1976.552692 43.522388 
L 1979.301926 50.776119 
L 1982.360489 58.029851 
L 1986.130031 65.796632 
L 1990.012509 72.537313 
L 1994.447493 79.791045 
L 2000.574613 88.86923 
L 2004.764214 94.298507 
L 2010.717614 101.552239 
L 2017.301424 108.80597 
L 2024.518073 116.059701 
L 2032.412693 123.313433 
L 2040.916768 130.567164 
L 2043.908359 132.936621 
L 2051.13065 138.361432 
L 2065.575232 148.303152 
L 2072.797523 152.897598 
L 2084.160922 159.58209 
L 2087.242105 161.276858 
L 2097.759416 166.835821 
L 2101.686687 168.797547 
L 2116.131269 175.330732 
L 2130.575851 181.354515 
L 2137.798142 184.097089 
L 2152.242724 189.226192 
L 2173.378859 195.850746 
L 2173.909598 196.008149 
L 2188.35418 199.776461 
L 2202.798762 203.296478 
L 2224.465635 207.566118 
L 2231.687926 208.879904 
L 2246.132508 211.144248 
L 2260.57709 213.023738 
L 2275.021672 214.646118 
L 2289.466254 215.872068 
L 2303.910836 216.726374 
L 2311.133127 217.12745 
L 2325.577709 217.524593 
L 2332.8 217.626568 
L 2332.8 217.626568 
" clip-path="url(#p0e04d335a7)" style="fill: none; stroke: #ffffff; stroke-opacity: 0.3; stroke-width: 1.5"/>
    <path d="M 0 420.92933 
L 9.881497 420.716418 
L 14.444582 420.515767 
L 21.666873 420.026079 
L 28.889164 419.404346 
L 43.333746 417.670371 
L 57.778328 415.273813 
L 66.653669 413.462687 
L 72.22291 412.224978 
L 79.445201 410.498771 
L 86.667492 408.570834 
L 94.691316 406.208955 
L 101.112074 404.172686 
L 108.334365 401.723189 
L 122.778947 396.260098 
L 137.223529 390.114794 
L 151.668111 383.15102 
L 166.112693 375.303832 
L 175.003197 369.940299 
L 187.779567 361.882457 
L 202.224149 351.688579 
L 209.44644 346.281243 
L 216.668731 340.540785 
L 224.836753 333.671642 
L 233.057453 326.41791 
L 240.80976 319.164179 
L 248.164975 311.910448 
L 255.164961 304.656716 
L 261.720716 297.402985 
L 268.027448 290.149254 
L 274.447059 282.302036 
L 281.66935 273.125822 
L 290.341474 261.134328 
L 296.113932 252.713445 
L 303.336223 241.550946 
L 309.092962 232.119403 
L 313.186364 224.865672 
L 317.780805 216.527975 
L 325.003096 202.508791 
L 331.493903 188.597015 
L 334.640141 181.343284 
L 340.563638 166.835821 
L 343.339581 159.58209 
L 348.444265 145.074627 
L 350.843999 137.820896 
L 353.89226 127.81042 
L 357.076553 116.059701 
L 358.91647 108.80597 
L 363.693248 87.044776 
L 365.030943 79.791045 
L 367.383492 65.283582 
L 369.303938 50.776119 
L 370.721767 36.268657 
L 371.785374 21.761194 
L 372.353762 7.253731 
L 372.452797 0 
M 2124.030181 0 
L 2124.824036 7.253731 
L 2126.25186 14.507463 
L 2128.442511 21.761194 
L 2130.945298 29.014925 
L 2134.600775 36.268657 
L 2138.98279 43.522388 
L 2145.020433 51.464662 
L 2150.453327 58.029851 
L 2152.242724 59.92863 
L 2157.709135 65.283582 
L 2159.465015 66.793221 
L 2166.687307 72.803943 
L 2173.909598 78.487534 
L 2175.759631 79.791045 
L 2187.190765 87.044776 
L 2188.35418 87.715759 
L 2202.798762 95.524576 
L 2217.243344 101.925186 
L 2231.687926 107.207402 
L 2238.910217 109.451375 
L 2246.132508 111.597816 
L 2260.57709 115.200887 
L 2267.799381 116.779117 
L 2275.021672 118.162867 
L 2282.243963 119.349333 
L 2289.466254 120.36503 
L 2296.688545 121.230373 
L 2311.133127 122.622832 
L 2318.355418 123.073918 
L 2332.8 123.505901 
L 2332.8 123.505901 
" clip-path="url(#p0e04d335a7)" style="fill: none; stroke: #ffffff; stroke-opacity: 0.3; stroke-width: 1.5"/>
    <path d="M 0 350.191302 
L 7.222291 350.07367 
L 14.444582 349.702122 
L 21.666873 349.132155 
L 28.889164 348.402697 
L 30.532198 348.179104 
L 36.111455 347.409088 
L 43.333746 346.345364 
L 50.556037 344.970632 
L 57.778328 343.499461 
L 65.000619 341.784974 
L 68.285121 340.925373 
L 72.22291 339.880535 
L 79.445201 337.811519 
L 86.667492 335.505973 
L 91.919456 333.671642 
L 93.889783 332.972788 
L 101.112074 330.229003 
L 108.334365 327.29232 
L 110.29135 326.41791 
L 115.556656 324.030383 
L 122.778947 320.698679 
L 125.824165 319.164179 
L 130.001238 317.027335 
L 137.223529 313.216508 
L 139.501473 311.910448 
L 144.44582 309.019063 
L 151.668111 304.685377 
L 151.712645 304.656716 
L 158.890402 299.871935 
L 162.501431 297.402985 
L 166.112693 294.909477 
L 172.488681 290.149254 
L 173.334985 289.495442 
L 180.557276 283.764592 
L 181.640458 282.895522 
L 187.779567 277.896379 
L 190.324507 275.641791 
L 195.001858 271.348644 
L 198.192575 268.38806 
L 202.224149 264.596965 
L 205.773077 261.134328 
L 209.44644 257.444832 
L 212.836307 253.880597 
L 216.668731 249.727912 
L 219.433588 246.626866 
L 223.891022 241.460364 
L 225.653835 239.373134 
L 231.113313 232.832211 
L 231.687204 232.119403 
L 237.192996 224.865672 
L 238.335604 223.345317 
L 242.503634 217.61194 
L 245.557895 213.211726 
L 247.4907 210.358209 
L 252.367599 203.104478 
L 252.780186 202.45023 
L 256.839535 195.850746 
L 260.002477 190.564274 
L 261.144008 188.597015 
L 265.149967 181.343284 
L 267.224768 177.427281 
L 268.954613 174.089552 
L 272.623557 166.835821 
L 274.447059 163.089224 
L 276.134203 159.58209 
L 279.407354 152.328358 
L 281.66935 147.166499 
L 282.549582 145.074627 
L 285.473387 137.820896 
L 288.223397 130.567164 
L 288.891641 128.667269 
L 290.751256 123.313433 
L 293.156084 116.059701 
L 295.446525 108.80597 
L 296.113932 106.381711 
L 297.426536 101.552239 
L 299.450265 94.298507 
L 301.310034 87.044776 
L 302.941266 79.791045 
L 303.336223 77.864133 
L 304.401111 72.537313 
L 305.751494 65.283582 
L 306.958646 58.029851 
L 308.062551 50.776119 
L 308.976964 43.522388 
L 309.79127 36.268657 
L 310.451349 29.014925 
L 310.558514 27.776323 
L 311.069827 21.761194 
L 311.476332 14.507463 
L 311.750928 7.253731 
L 311.868481 0 
" clip-path="url(#p0e04d335a7)" style="fill: none; stroke: #ffffff; stroke-opacity: 0.3; stroke-width: 1.5"/>
    <path d="M 0 270.405218 
L 7.222291 270.246638 
L 14.444582 269.766728 
L 21.666873 269.033864 
L 26.606474 268.38806 
L 28.889164 268.086789 
L 36.111455 266.807125 
L 43.333746 265.431918 
L 50.556037 263.668024 
L 57.778328 261.766373 
L 59.851048 261.134328 
L 65.000619 259.525106 
L 72.22291 257.036353 
L 79.445201 254.33687 
L 80.545135 253.880597 
L 86.667492 251.274794 
L 93.889783 247.910707 
L 96.462352 246.626866 
L 101.112074 244.23653 
L 108.334365 240.264865 
L 109.813492 239.373134 
L 115.556656 235.878887 
L 121.616718 232.119403 
L 122.778947 231.35742 
L 130.001238 226.192198 
L 131.797938 224.865672 
L 137.223529 220.823721 
L 141.205406 217.61194 
L 144.44582 214.884061 
L 149.6838 210.358209 
L 151.668111 208.632761 
L 157.600995 203.104478 
L 158.890402 201.826701 
L 164.776013 195.850746 
L 166.112693 194.458153 
L 171.338129 188.597015 
L 173.334985 186.246967 
L 177.392951 181.343284 
L 180.557276 177.361762 
L 183.128258 174.089552 
L 187.779567 168.021959 
L 188.620674 166.835821 
L 193.574868 159.58209 
L 195.001858 157.361413 
L 198.198031 152.328358 
L 202.224149 145.793397 
L 202.653094 145.074627 
L 206.799738 137.820896 
L 209.44644 132.908297 
L 210.65277 130.567164 
L 214.121116 123.313433 
L 216.668731 117.724068 
L 217.404455 116.059701 
L 220.464787 108.80597 
L 223.136214 101.552239 
L 223.891022 99.549304 
L 225.833648 94.298507 
L 228.306087 87.044776 
L 230.473741 79.791045 
L 231.113313 77.4468 
L 232.409521 72.537313 
L 234.184527 65.283582 
L 235.775558 58.029851 
L 237.231116 50.776119 
L 238.335604 44.15643 
L 238.438426 43.522388 
L 239.48496 36.268657 
L 240.331139 29.014925 
L 241.130726 21.761194 
L 241.662684 14.507463 
L 242.021712 7.253731 
L 242.17436 0 
" clip-path="url(#p0e04d335a7)" style="fill: none; stroke: #ffffff; stroke-opacity: 0.3; stroke-width: 1.5"/>
    <path d="M 0 166.516047 
L 7.222291 166.254129 
L 14.444582 165.489241 
L 21.666873 164.32587 
L 28.889164 162.817529 
L 36.111455 160.798301 
L 40.138125 159.58209 
L 43.333746 158.561939 
L 50.556037 155.625731 
L 57.778328 152.439863 
L 57.99763 152.328358 
L 65.000619 148.668428 
L 71.237568 145.074627 
L 72.22291 144.482599 
L 79.445201 139.768922 
L 82.137913 137.820896 
L 86.667492 134.357509 
L 91.204773 130.567164 
L 93.889783 128.153912 
L 98.919413 123.313433 
L 101.112074 121.102939 
L 105.796756 116.059701 
L 108.334365 113.197935 
L 111.897202 108.80597 
L 115.556656 103.660714 
L 117.028538 101.552239 
L 122.191068 94.298507 
L 122.778947 93.404492 
L 126.622946 87.044776 
L 130.001238 80.670672 
L 130.453244 79.791045 
L 133.862911 72.537313 
L 137.007972 65.283582 
L 137.223529 64.730942 
L 139.653897 58.029851 
L 142.062004 50.776119 
L 144.070659 43.522388 
L 144.44582 41.996552 
L 145.820461 36.268657 
L 147.225302 29.014925 
L 148.545964 21.761194 
L 149.431677 14.507463 
L 150.02906 7.253731 
L 150.281683 0 
" clip-path="url(#p0e04d335a7)" style="fill: none; stroke: #ffffff; stroke-opacity: 0.3; stroke-width: 1.5"/>
    <path clip-path="url(#p0e04d335a7)" style="fill: none; stroke: #ffffff; stroke-opacity: 0.3; stroke-width: 1.5"/>
   </g>
  </g>
 </g>
 <defs>
  <clipPath id="p0e04d335a7">
   <rect x="0" y="0" width="2332.8" height="972"/>
  </clipPath>
 </defs>
</svg>
