<?xml version="1.0" encoding="utf-8" standalone="no"?>
<!DOCTYPE svg PUBLIC "-//W3C//DTD SVG 1.1//EN"
  "http://www.w3.org/Graphics/SVG/1.1/DTD/svg11.dtd">
<svg xmlns:xlink="http://www.w3.org/1999/xlink" width="2332.8pt" height="972pt" viewBox="0 0 2332.8 972" xmlns="http://www.w3.org/2000/svg" version="1.1">
 <metadata>
  <rdf:RDF xmlns:dc="http://purl.org/dc/elements/1.1/" xmlns:cc="http://creativecommons.org/ns#" xmlns:rdf="http://www.w3.org/1999/02/22-rdf-syntax-ns#">
   <cc:Work>
    <dc:type rdf:resource="http://purl.org/dc/dcmitype/StillImage"/>
    <dc:date>2026-02-11T12:50:31.755912</dc:date>
    <dc:format>image/svg+xml</dc:format>
    <dc:creator>
     <cc:Agent>
      <dc:title>Matplotlib v3.10.8, https://matplotlib.org/</dc:title>
     </cc:Agent>
    </dc:creator>
   </cc:Work>
  </rdf:RDF>
 </metadata>
 <defs>
  <style type="text/css">*{stroke-linejoin: round; stroke-linecap: butt}</style>
 </defs>
 <g id="figure_1">
  <g id="axes_1">
   <g id="QuadContourSet_1">
    <path clip-path="url(#p40d48e85bf)" style="fill: none; stroke-dasharray: 5.55,2.4; stroke-dashoffset: 0; stroke: #ffffff; stroke-opacity: 0.3; stroke-width: 1.5"/>
    <path d="M 2046.660982 972 
L 2046.912141 964.746269 
L 2047.437205 957.492537 
L 2048.268763 950.238806 
L 2049.228347 942.985075 
L 2050.423369 935.731343 
L 2051.13065 932.177155 
L 2051.89293 928.477612 
L 2053.659615 921.223881 
L 2055.620071 913.970149 
L 2057.952514 906.716418 
L 2058.352941 905.596236 
L 2060.513521 899.462687 
L 2063.143583 892.208955 
L 2065.575232 886.271561 
L 2066.132709 884.955224 
L 2069.426662 877.701493 
L 2072.797523 870.897216 
L 2073.02603 870.447761 
L 2076.869007 863.19403 
L 2080.019814 857.686507 
L 2081.061091 855.940299 
L 2085.525459 848.686567 
L 2087.242105 846.06648 
L 2090.193321 841.432836 
L 2094.464396 835.072655 
L 2095.119834 834.179104 
L 2100.578824 826.925373 
L 2101.686687 825.567267 
L 2106.532363 819.671642 
L 2108.908978 816.89835 
L 2112.827811 812.41791 
L 2116.131269 808.728069 
L 2119.390915 805.164179 
L 2123.35356 801.115835 
L 2126.594901 797.910448 
L 2130.575851 794.088151 
L 2134.339852 790.656716 
L 2137.798142 787.64953 
L 2142.754068 783.402985 
L 2145.020433 781.505029 
L 2151.739397 776.149254 
L 2152.242724 775.761609 
L 2159.465015 770.31123 
L 2161.389955 768.895522 
L 2166.687307 765.093168 
L 2171.923903 761.641791 
L 2173.909598 760.362099 
L 2181.131889 755.785097 
L 2183.442497 754.38806 
L 2188.35418 751.476951 
L 2195.576471 747.283037 
L 2195.856289 747.134328 
L 2202.798762 743.634251 
L 2210.021053 740.078929 
L 2210.462671 739.880597 
L 2217.243344 736.878285 
L 2224.465635 733.742308 
L 2227.361652 732.626866 
L 2231.687926 730.957751 
L 2238.910217 728.173111 
L 2246.132508 725.640319 
L 2246.938426 725.373134 
L 2253.354799 723.326987 
L 2260.57709 721.409079 
L 2267.799381 719.490317 
L 2273.438762 718.119403 
L 2275.021672 717.746941 
L 2282.243963 716.354996 
L 2289.466254 715.046589 
L 2296.688545 714.096694 
L 2303.910836 713.130564 
L 2311.133127 712.366105 
L 2318.355418 711.775566 
L 2325.577709 711.527201 
L 2332.8 711.303477 
" clip-path="url(#p40d48e85bf)" style="fill: none; stroke-dasharray: 5.55,2.4; stroke-dashoffset: 0; stroke: #ffffff; stroke-opacity: 0.3; stroke-width: 1.5"/>
    <path d="M 1855.721162 972 
L 1856.128793 960.404454 
L 1856.27802 957.492537 
L 1857.509747 942.985075 
L 1858.339015 935.731343 
L 1859.331622 928.477612 
L 1860.51909 921.223881 
L 1861.819669 913.970149 
L 1863.382833 906.716418 
L 1867.04197 892.208955 
L 1871.340554 877.701493 
L 1873.702346 870.447761 
L 1877.795666 858.810708 
L 1881.749474 848.686567 
L 1885.017957 840.933934 
L 1891.229373 826.925373 
L 1894.841821 819.671642 
L 1902.519111 805.164179 
L 1906.68483 797.878229 
L 1911.018654 790.656716 
L 1920.246361 776.149254 
L 1928.351703 764.156125 
L 1935.416409 754.38806 
L 1942.796285 744.552517 
L 1952.447922 732.626866 
L 1964.537191 718.119403 
L 1971.685449 710.289446 
L 1986.130031 695.007515 
L 2000.574613 680.717957 
L 2007.796904 673.861712 
L 2015.019195 667.214141 
L 2029.463777 654.695639 
L 2040.443913 645.58209 
L 2043.908359 642.779175 
L 2051.13065 637.130838 
L 2072.797523 621.013335 
L 2080.019814 615.95005 
L 2090.091599 609.313433 
L 2094.464396 606.365866 
L 2108.908978 597.571679 
L 2123.35356 589.189209 
L 2130.575851 585.177844 
L 2145.020433 577.617892 
L 2154.384644 573.044776 
L 2166.687307 567.345531 
L 2181.131889 561.324395 
L 2195.576471 555.703219 
L 2210.021053 550.690273 
L 2224.465635 546.253365 
L 2238.910217 542.3375 
L 2253.354799 538.889153 
L 2275.021672 534.788156 
L 2289.466254 532.73399 
L 2303.910836 531.278089 
L 2311.133127 530.701839 
L 2318.355418 530.246976 
L 2332.8 529.885782 
M 327.291944 0 
L 326.598402 7.253731 
L 325.331834 14.507463 
L 323.216769 21.761194 
L 320.456155 29.014925 
L 316.928919 36.268657 
L 312.738649 43.522388 
L 307.632264 50.776119 
L 301.660484 58.029851 
L 294.965167 65.283582 
L 286.971005 72.537313 
L 281.66935 76.888658 
L 277.944902 79.791045 
L 267.224768 87.411158 
L 252.780186 96.159884 
L 242.604529 101.552239 
L 238.335604 103.630829 
L 227.080751 108.80597 
L 223.891022 110.147284 
L 208.994887 116.059701 
L 195.001858 120.874846 
L 187.658678 123.313433 
L 173.334985 127.403734 
L 166.112693 129.392507 
L 158.890402 131.135699 
L 144.44582 134.400355 
L 130.001238 137.325662 
L 122.778947 138.585303 
L 108.334365 140.920156 
L 93.889783 142.912829 
L 75.441323 145.074627 
L 57.778328 146.677976 
L 43.333746 147.610977 
L 28.889164 148.34943 
L 14.444582 148.80991 
L 0 148.995413 
L 0 148.995413 
" clip-path="url(#p40d48e85bf)" style="fill: none; stroke-dasharray: 5.55,2.4; stroke-dashoffset: 0; stroke: #ffffff; stroke-opacity: 0.3; stroke-width: 1.5"/>
    <path d="M 1694.127274 972 
L 1694.306748 964.746269 
L 1694.639528 957.492537 
L 1695.701469 942.985075 
L 1696.42337 935.731343 
L 1697.281634 928.477612 
L 1699.45485 913.970149 
L 1700.824933 906.716418 
L 1703.946727 892.208955 
L 1707.611254 877.701493 
L 1711.682972 863.799444 
L 1711.864244 863.19403 
L 1716.602298 848.686567 
L 1719.175471 841.432836 
L 1724.750443 826.925373 
L 1730.996504 812.41791 
L 1734.290633 805.164179 
L 1740.572136 792.502542 
L 1741.49049 790.656716 
L 1749.182577 776.149254 
L 1757.467392 761.641791 
L 1766.168827 747.134328 
L 1775.644818 732.626866 
L 1783.905882 720.282366 
L 1785.415495 718.119403 
L 1796.00331 703.61194 
L 1805.572755 690.779601 
L 1812.795046 681.480554 
L 1830.254315 660.089552 
L 1842.789087 645.58209 
L 1863.351084 622.709069 
L 1877.795666 607.623152 
L 1892.240248 593.083622 
L 1913.907121 572.240417 
L 1928.769536 558.537313 
L 1950.018576 539.981049 
L 1962.229102 529.522388 
L 1964.463158 527.607817 
L 1979.984675 515.014925 
L 1989.086338 507.761194 
L 2008.051712 493.253731 
L 2017.805309 486 
L 2038.180935 471.492537 
L 2048.712999 464.238806 
L 2051.13065 462.603169 
L 2059.816567 456.985075 
L 2065.575232 453.133569 
L 2080.019814 444.006753 
L 2101.686687 431.12027 
L 2116.131269 422.971692 
L 2123.35356 419.054216 
L 2134.237709 413.462687 
L 2145.020433 408.045408 
L 2166.687307 397.881772 
L 2181.478253 391.701493 
L 2195.576471 386.139056 
L 2210.021053 380.998814 
L 2224.465635 376.455951 
L 2238.910217 372.433689 
L 2253.354799 368.893013 
L 2275.021672 364.639142 
L 2289.466254 362.519059 
L 2311.133127 360.387234 
L 2318.355418 359.901464 
L 2332.8 359.518627 
M 509.966052 0 
L 509.572317 7.253731 
L 508.862394 14.507463 
L 507.694356 21.761194 
L 506.176589 29.014925 
L 504.229726 36.268657 
L 501.942033 43.522388 
L 498.33808 52.712421 
L 495.954102 58.029851 
L 492.350514 65.283582 
L 488.320314 72.537313 
L 483.796076 79.791045 
L 478.621382 87.044776 
L 472.98062 94.298507 
L 466.804425 101.552239 
L 459.965698 108.80597 
L 452.377763 116.059701 
L 444.109692 123.313433 
L 435.074689 130.567164 
L 426.11517 137.078494 
L 425.067952 137.820896 
L 414.124432 145.074627 
L 411.670588 146.599398 
L 402.042813 152.328358 
L 397.226006 155.048112 
L 388.864799 159.58209 
L 374.050653 166.835821 
L 361.114551 172.581797 
L 353.89226 175.563459 
L 346.669969 178.459108 
L 332.225387 183.73386 
L 325.003096 186.246473 
L 317.780805 188.628822 
L 303.336223 193.040656 
L 293.695752 195.850746 
L 267.224768 202.688616 
L 252.780186 205.949292 
L 230.931035 210.358209 
L 216.668731 212.919635 
L 202.224149 215.306604 
L 187.250767 217.61194 
L 166.112693 220.416729 
L 137.223529 223.633694 
L 122.778947 224.976613 
L 108.334365 226.166525 
L 86.667492 227.616405 
L 72.22291 228.433017 
L 50.556037 229.368814 
L 28.889164 229.996797 
L 7.222291 230.299623 
L 0 230.33613 
L 0 230.33613 
" clip-path="url(#p40d48e85bf)" style="fill: none; stroke-dasharray: 5.55,2.4; stroke-dashoffset: 0; stroke: #ffffff; stroke-opacity: 0.3; stroke-width: 1.5"/>
    <path d="M 1535.305798 972 
L 1535.481955 964.746269 
L 1535.793809 957.492537 
L 1536.736453 942.985075 
L 1537.383483 935.731343 
L 1538.347988 926.948667 
L 1540.067744 913.970149 
L 1541.283189 906.716418 
L 1544.069887 892.208955 
L 1547.333749 877.701493 
L 1549.180577 870.447761 
L 1552.79257 857.603136 
L 1555.503223 848.686567 
L 1560.014861 835.269601 
L 1562.927038 826.925373 
L 1568.549966 812.41791 
L 1571.524836 805.164179 
L 1574.682949 797.910448 
L 1578.046836 790.656716 
L 1585.16067 776.149254 
L 1592.661633 761.641791 
L 1600.579689 747.134328 
L 1609.247954 732.626866 
L 1613.637639 725.373134 
L 1618.250924 718.119403 
L 1627.889945 703.61194 
L 1632.736067 696.358209 
L 1642.834963 681.850746 
L 1653.904644 666.719593 
L 1664.615367 652.835821 
L 1675.974987 638.328358 
L 1693.749412 616.567164 
L 1706.207489 602.059701 
L 1726.127554 579.530337 
L 1733.349845 571.535824 
L 1759.226476 544.029851 
L 1780.138851 522.268657 
L 1794.493232 507.761194 
L 1834.46192 468.44546 
L 1863.351084 440.877884 
L 1870.573375 434.271161 
L 1877.795666 427.313869 
L 1916.31064 391.701493 
L 1928.351703 380.633632 
L 1957.240867 354.918842 
L 1964.54307 348.179104 
L 1980.910852 333.671642 
L 1993.352322 322.587197 
L 2029.463777 290.956897 
L 2047.308756 275.641791 
L 2051.13065 272.328645 
L 2058.352941 266.359958 
L 2065.575232 260.103937 
L 2090.474525 239.373134 
L 2094.464396 235.917728 
L 2108.908978 224.297602 
L 2123.35356 212.629775 
L 2126.277239 210.358209 
L 2130.575851 206.84906 
L 2159.465015 184.384283 
L 2173.909598 173.535716 
L 2183.173079 166.835821 
L 2188.35418 162.773942 
L 2195.576471 157.389914 
L 2202.983013 152.328358 
L 2210.021053 147.351997 
L 2213.686046 145.074627 
L 2224.626306 137.820896 
L 2238.910217 128.979066 
L 2253.354799 120.67448 
L 2262.750146 116.059701 
L 2267.799381 113.454506 
L 2275.021672 110.021951 
L 2282.243963 107.174085 
L 2289.466254 104.381275 
L 2299.732115 101.552239 
L 2303.910836 100.253436 
L 2311.133127 98.571938 
L 2318.355418 97.172753 
L 2332.8 96.079523 
M 659.963258 0 
L 659.699721 7.253731 
L 659.234046 14.507463 
L 658.454276 21.761194 
L 657.228483 30.199186 
L 656.146661 36.268657 
L 654.653773 43.522388 
L 652.835813 50.776119 
L 650.006192 60.270333 
L 648.41251 65.283582 
L 645.836064 72.537313 
L 642.783901 80.126746 
L 639.614992 87.044776 
L 635.56161 95.190185 
L 632.16655 101.552239 
L 627.906983 108.80597 
L 621.117028 119.072879 
L 618.154585 123.313433 
L 612.773721 130.567164 
L 606.672446 137.970382 
L 599.450155 146.061312 
L 592.227864 153.635827 
L 585.005573 160.561375 
L 577.783282 167.044074 
L 569.332565 174.089552 
L 556.116409 184.049145 
L 548.894118 188.995758 
L 538.39643 195.850746 
L 534.449536 198.291281 
L 526.317288 203.104478 
L 512.782663 210.409465 
L 498.33808 217.565503 
L 491.115789 220.854832 
L 482.119678 224.865672 
L 469.448916 230.025788 
L 462.226625 232.85411 
L 447.782043 238.067539 
L 440.559752 240.4938 
L 426.11517 245.121871 
L 418.892879 247.316714 
L 411.670588 249.400263 
L 390.003715 255.186075 
L 375.559133 258.65228 
L 361.114551 261.884584 
L 346.669969 264.887633 
L 325.003096 268.936739 
L 303.336223 272.524409 
L 296.113932 273.689553 
L 267.224768 277.720474 
L 238.335604 281.154487 
L 216.668731 283.385734 
L 202.224149 284.706678 
L 180.557276 286.496273 
L 158.890402 288.026245 
L 137.223529 289.376241 
L 115.556656 290.471139 
L 93.889783 291.372726 
L 65.000619 292.266838 
L 50.556037 292.616265 
L 21.666873 293.041039 
L 0 293.163833 
L 0 293.163833 
" clip-path="url(#p40d48e85bf)" style="fill: none; stroke: #ffffff; stroke-opacity: 0.3; stroke-width: 1.5"/>
    <path d="M 1371.291153 972 
L 1371.709177 957.492537 
L 1372.433334 942.985075 
L 1373.539415 928.477612 
L 1375.062747 913.970149 
L 1376.043176 906.716418 
L 1378.307539 892.208955 
L 1380.920199 877.701493 
L 1382.395708 870.447761 
L 1384.001825 863.19403 
L 1387.492369 848.686567 
L 1389.401682 841.432836 
L 1393.550593 826.925373 
L 1398.227427 812.41791 
L 1401.124458 804.03427 
L 1403.359037 797.910448 
L 1406.179521 790.656716 
L 1412.200966 776.149254 
L 1418.57743 761.641791 
L 1425.417412 747.134328 
L 1433.028992 732.626866 
L 1437.235913 724.840662 
L 1440.981109 718.119403 
L 1445.210166 710.865672 
L 1458.902786 688.489597 
L 1466.125077 677.559703 
L 1473.347368 666.809009 
L 1480.569659 656.571574 
L 1488.530347 645.58209 
L 1499.494232 631.074627 
L 1509.458824 618.244351 
L 1510.787022 616.567164 
L 1523.903406 600.628978 
L 1541.24112 580.298507 
L 1547.504047 573.044776 
L 1554.023405 565.791045 
L 1588.904025 527.924423 
L 1608.053238 507.761194 
L 1625.01548 490.332152 
L 1643.240448 471.492537 
L 1668.349226 446.092893 
L 1678.9966 435.223881 
L 1711.682972 401.710246 
L 1726.127554 386.66645 
L 1749.111241 362.686567 
L 1755.970266 355.432836 
L 1776.683591 332.919541 
L 1801.798339 304.656716 
L 1820.650198 282.895522 
L 1841.684211 257.353583 
L 1848.906502 248.430129 
L 1850.331771 246.626866 
L 1866.890859 224.865672 
L 1872.291106 217.61194 
L 1882.612542 203.104478 
L 1887.544797 195.850746 
L 1899.462539 177.771115 
L 1906.263289 166.835821 
L 1918.53385 145.074627 
L 1925.934678 130.567164 
L 1932.825213 116.059701 
L 1936.016513 108.80597 
L 1938.999223 101.552239 
L 1942.796285 91.480924 
L 1944.431524 87.044776 
L 1950.018576 69.870959 
L 1951.403165 65.283582 
L 1953.224016 58.029851 
L 1954.922969 50.776119 
L 1957.908902 36.268657 
L 1958.932374 29.014925 
L 1959.789767 21.761194 
L 1960.501255 14.507463 
L 1960.906801 7.253731 
L 1961.110372 0 
M 804.85121 0 
L 804.677844 7.253731 
L 804.383184 14.507463 
L 803.874534 21.761194 
L 803.210018 29.014925 
L 801.398366 43.522388 
L 800.194607 50.776119 
L 798.785513 58.029851 
L 797.245211 65.283582 
L 795.536469 72.537313 
L 793.618213 79.791045 
L 791.472209 87.044776 
L 789.198455 94.298507 
L 786.704609 101.552239 
L 783.970537 108.80597 
L 780.00743 118.256942 
L 777.755287 123.313433 
L 774.369005 130.567164 
L 770.567367 137.820896 
L 765.562848 146.677734 
L 762.245769 152.328358 
L 757.731436 159.58209 
L 751.118266 169.112864 
L 747.444088 174.089552 
L 741.694104 181.343284 
L 735.707717 188.597015 
L 729.227143 195.850746 
L 722.229102 203.119259 
L 714.643026 210.358209 
L 706.562014 217.61194 
L 697.888721 224.865672 
L 688.449309 232.119403 
L 678.895356 238.917937 
L 678.245492 239.373134 
L 667.315518 246.626866 
L 664.450774 248.395956 
L 655.156702 253.880597 
L 642.106754 261.134328 
L 627.54532 268.38806 
L 613.894737 274.652631 
L 606.672446 277.722613 
L 592.227864 283.504543 
L 577.783282 288.697427 
L 570.560991 291.173189 
L 556.116409 295.843736 
L 534.449536 302.132498 
L 520.004954 305.890024 
L 505.560372 309.377553 
L 491.115789 312.590935 
L 476.671207 315.565924 
L 457.59526 319.164179 
L 440.559752 322.065254 
L 418.892879 325.438067 
L 404.448297 327.442508 
L 390.003715 329.33594 
L 361.114551 332.649387 
L 339.447678 334.81863 
L 317.780805 336.776229 
L 296.113932 338.54452 
L 245.557895 341.836407 
L 223.891022 342.99005 
L 187.779567 344.617961 
L 144.44582 346.080277 
L 115.556656 346.817653 
L 93.889783 347.257854 
L 50.556037 347.863316 
L 14.444582 348.107345 
L 0 348.129296 
L 0 348.129296 
" clip-path="url(#p40d48e85bf)" style="fill: none; stroke: #ffffff; stroke-opacity: 0.3; stroke-width: 1.5"/>
    <path d="M 1206.537197 972 
L 1206.807569 957.492537 
L 1207.388815 935.731343 
L 1208.05379 921.223881 
L 1208.401321 913.970149 
L 1209.459685 899.462687 
L 1211.309239 877.701493 
L 1212.850001 863.19403 
L 1215.547649 841.432836 
L 1217.643261 826.925373 
L 1220.567183 809.575372 
L 1222.725036 797.910448 
L 1224.234511 790.656716 
L 1229.217078 768.895522 
L 1230.939179 761.641791 
L 1235.011765 746.275432 
L 1242.234056 722.741081 
L 1243.788153 718.119403 
L 1249.456347 702.40919 
L 1251.650351 696.358209 
L 1257.405882 681.850746 
L 1260.482064 674.597015 
L 1263.900929 666.887241 
L 1267.055742 660.089552 
L 1278.015748 638.328358 
L 1282.006784 631.074627 
L 1286.108338 623.820896 
L 1290.442907 616.567164 
L 1300.012384 601.484473 
L 1314.671729 580.298507 
L 1321.679257 571.046451 
L 1328.901548 561.994894 
L 1337.802218 551.283582 
L 1344.020714 544.029851 
L 1357.790712 528.403742 
L 1377.395203 507.761194 
L 1401.124458 484.268536 
L 1415.56904 470.490464 
L 1430.072293 456.985075 
L 1437.98763 449.731343 
L 1445.785864 442.477612 
L 1453.828624 435.223881 
L 1461.662556 427.970149 
L 1466.125077 424.011998 
L 1473.347368 417.38384 
L 1480.569659 410.841507 
L 1495.014241 397.426591 
L 1516.746251 377.19403 
L 1524.631072 369.940299 
L 1539.859064 355.432836 
L 1567.237152 328.087067 
L 1582.869489 311.910448 
L 1596.366903 297.402985 
L 1617.793189 273.364107 
L 1625.01548 264.968661 
L 1634.182986 253.880597 
L 1646.682353 238.088901 
L 1662.031511 217.61194 
L 1668.349226 208.836475 
L 1676.948136 195.850746 
L 1682.793808 186.89573 
L 1686.259585 181.343284 
L 1690.559413 174.089552 
L 1694.731923 166.835821 
L 1706.32348 145.074627 
L 1711.682972 133.860951 
L 1716.403418 123.313433 
L 1722.23549 108.80597 
L 1726.127554 98.181975 
L 1727.46495 94.298507 
L 1729.821764 87.044776 
L 1734.015372 72.537313 
L 1735.937905 65.283582 
L 1737.544624 58.029851 
L 1739.026465 50.776119 
L 1741.614831 36.268657 
L 1742.493477 29.014925 
L 1743.235016 21.761194 
L 1743.846712 14.507463 
L 1744.202625 7.253731 
L 1744.381188 0 
M 965.572293 0 
L 965.330535 14.507463 
L 964.693163 29.014925 
L 963.736032 43.522388 
L 963.08248 50.776119 
L 961.460849 65.283582 
L 959.575749 79.791045 
L 957.236507 94.298507 
L 955.924306 101.552239 
L 953.342415 113.777798 
L 951.071365 123.313433 
L 949.307339 130.567164 
L 945.054987 145.074627 
L 940.390133 159.58209 
L 935.027459 174.089552 
L 928.895771 188.597015 
L 924.453251 198.249079 
L 922.047938 203.104478 
L 917.23096 211.894984 
L 913.987904 217.61194 
L 909.587604 224.865672 
L 904.973312 232.119403 
L 899.89618 239.373134 
L 894.461089 246.626866 
L 888.341796 254.29321 
L 881.119505 262.71803 
L 873.897214 270.304497 
L 866.674923 277.37882 
L 859.452632 283.869073 
L 851.918935 290.149254 
L 842.484464 297.402985 
L 837.785759 300.858883 
L 830.563467 305.89219 
L 820.994944 311.910448 
L 816.118885 314.840167 
L 808.608247 319.164179 
L 801.674303 322.929719 
L 794.452012 326.544029 
L 780.00743 333.380847 
L 772.785139 336.488652 
L 758.340557 342.249201 
L 751.118266 344.857891 
L 736.673684 349.80622 
L 729.451393 352.141168 
L 715.006811 356.334543 
L 700.562229 360.257511 
L 678.895356 365.352185 
L 671.673065 366.977651 
L 656.903922 369.940299 
L 635.56161 373.774078 
L 621.117028 376.124442 
L 606.672446 378.257571 
L 592.227864 380.208894 
L 570.560991 382.779474 
L 548.894118 385.026601 
L 534.449536 386.428653 
L 512.782663 388.208324 
L 491.115789 389.782477 
L 476.671207 390.727795 
L 447.782043 392.357316 
L 411.670588 393.978204 
L 361.114551 395.626221 
L 317.780805 396.630156 
L 281.66935 397.242868 
L 202.224149 398.097978 
L 144.44582 398.439138 
L 93.889783 398.589937 
L 0 398.693762 
L 0 398.693762 
" clip-path="url(#p40d48e85bf)" style="fill: none; stroke: #ffffff; stroke-opacity: 0.3; stroke-width: 1.5"/>
    <path d="M 1052.867449 972 
L 1052.904818 950.238806 
L 1052.254731 906.716418 
L 1051.824553 884.955224 
L 1051.080789 863.19403 
L 1050.510119 848.686567 
L 1049.099928 819.671642 
L 1047.692958 797.910448 
L 1046.177378 776.149254 
L 1045.558252 768.895522 
L 1041.81052 732.626866 
L 1039.008171 710.865672 
L 1037.957504 703.61194 
L 1035.484004 689.104478 
L 1032.584796 674.597015 
L 1030.990686 667.343284 
L 1027.52882 652.835821 
L 1023.365645 638.328358 
L 1021.079612 631.074627 
L 1018.343034 623.235266 
L 1012.977513 609.313433 
L 1009.620355 602.059701 
L 1006.171725 594.80597 
L 1002.239657 587.552239 
L 996.676161 578.640969 
L 992.944515 573.044776 
L 987.666199 565.791045 
L 981.798553 558.537313 
L 974.725747 551.283582 
L 967.157593 544.029851 
L 960.564706 538.522104 
L 958.118521 536.776119 
L 946.120124 528.783212 
L 938.897833 524.37356 
L 931.675542 520.587405 
L 917.23096 513.973972 
L 910.008669 511.062692 
L 895.564087 505.964886 
L 888.341796 503.733206 
L 873.897214 499.77579 
L 866.674923 497.966387 
L 859.452632 496.313688 
L 844.743551 493.253731 
L 823.341176 489.409589 
L 808.896594 487.22253 
L 787.229721 484.191759 
L 743.895975 479.234689 
L 693.339938 474.62021 
L 671.673065 472.934264 
L 628.339319 469.728737 
L 599.450155 467.776424 
L 505.560372 462.152852 
L 440.559752 458.734357 
L 397.226006 456.684885 
L 332.225387 453.905512 
L 260.002477 451.325425 
L 223.891022 450.274296 
L 195.001858 449.52156 
L 115.556656 447.96644 
L 65.000619 447.360537 
L 0 447.080361 
M 1226.269215 0 
L 1226.392104 7.253731 
L 1226.712311 14.507463 
L 1227.789474 29.983202 
L 1228.339195 36.268657 
L 1229.487835 43.522388 
L 1231.606745 58.029851 
L 1232.921408 65.283582 
L 1235.011765 74.01537 
L 1238.56943 87.044776 
L 1242.234056 97.338285 
L 1243.979889 101.552239 
L 1247.224 108.80597 
L 1250.791588 116.059701 
L 1255.136724 123.313433 
L 1256.678638 125.421863 
L 1263.900929 133.596453 
L 1268.128359 137.820896 
L 1271.12322 140.457958 
L 1278.345511 145.33609 
L 1285.567802 149.269136 
L 1293.182344 152.328358 
L 1300.012384 153.857076 
L 1307.234675 155.032502 
L 1314.456966 154.683804 
L 1321.679257 154.553402 
L 1328.901548 153.730691 
L 1336.577582 152.328358 
L 1343.34613 150.253515 
L 1350.568421 147.761905 
L 1357.790712 144.660534 
L 1365.013003 141.399303 
L 1372.235294 136.633381 
L 1379.457585 132.108362 
L 1381.614234 130.567164 
L 1386.679876 127.088305 
L 1391.644928 123.313433 
L 1393.902167 121.426109 
L 1401.124458 114.832383 
L 1408.346749 107.252425 
L 1415.56904 98.916842 
L 1422.791331 89.476827 
L 1424.52566 87.044776 
L 1433.547702 72.537313 
L 1437.674922 65.283582 
L 1440.747093 58.029851 
L 1444.458204 48.164204 
L 1448.715411 36.268657 
L 1450.502659 29.014925 
L 1451.991087 21.761194 
L 1453.087111 14.507463 
L 1453.764559 7.253731 
L 1454.090487 0 
L 1454.090487 0 
" clip-path="url(#p40d48e85bf)" style="fill: none; stroke: #ffffff; stroke-opacity: 0.3; stroke-width: 1.5"/>
    <path d="M 916.829946 972 
L 916.710989 957.492537 
L 916.183326 942.985075 
L 915.360146 928.477612 
L 914.861541 921.223881 
L 913.579667 906.716418 
L 912.040045 892.208955 
L 911.137524 884.955224 
L 908.944741 870.447761 
L 906.524144 855.940299 
L 903.593493 841.432836 
L 900.308174 826.925373 
L 898.528073 819.671642 
L 894.517175 805.164179 
L 889.954502 790.656716 
L 887.533577 783.402985 
L 884.825854 776.149254 
L 881.119505 766.889647 
L 875.703563 754.38806 
L 868.886675 739.880597 
L 865.081772 732.626866 
L 859.452632 722.657047 
L 856.761308 718.119403 
L 852.201389 710.865672 
L 847.410986 703.61194 
L 842.153559 696.358209 
L 836.604823 689.104478 
L 830.563467 681.843408 
L 823.341176 673.51699 
L 816.118885 665.960325 
L 808.896594 658.866333 
L 801.674303 652.197992 
L 794.011143 645.58209 
L 784.920741 638.328358 
L 772.785139 629.462285 
L 764.559146 623.820896 
L 751.118266 615.391959 
L 740.771365 609.313433 
L 729.451393 603.365953 
L 722.229102 599.651439 
L 712.260865 594.80597 
L 707.78452 592.757956 
L 693.339938 586.430756 
L 678.895356 580.605102 
L 671.673065 577.917762 
L 657.228483 572.691489 
L 650.006192 570.204742 
L 628.339319 563.356496 
L 613.894737 559.136553 
L 606.672446 557.115144 
L 592.227864 553.310269 
L 577.783282 549.665161 
L 563.3387 546.249829 
L 541.671827 541.501681 
L 518.226067 536.776119 
L 498.33808 533.092384 
L 483.893498 530.57306 
L 469.448916 528.13889 
L 440.559752 523.672329 
L 418.892879 520.623946 
L 390.003715 516.900007 
L 368.336842 514.300975 
L 339.447678 511.16322 
L 310.558514 508.352563 
L 288.891641 506.4111 
L 260.002477 504.110649 
L 216.668731 501.159496 
L 180.557276 499.150987 
L 151.668111 497.805152 
L 115.556656 496.46362 
L 79.445201 495.496199 
L 57.778328 495.078742 
L 36.111455 494.759364 
L 0 494.558821 
L 0 494.558821 
" clip-path="url(#p40d48e85bf)" style="fill: none; stroke: #ffffff; stroke-opacity: 0.3; stroke-width: 1.5"/>
    <path d="M 795.499846 972 
L 795.22262 957.492537 
L 794.858888 950.238806 
L 794.34887 942.985075 
L 793.723531 935.731343 
L 792.98136 928.477612 
L 792.126367 921.223881 
L 789.986188 906.716418 
L 788.739951 899.462687 
L 787.229721 891.618624 
L 785.806479 884.955224 
L 784.05061 877.701493 
L 780.00743 862.57281 
L 778.069755 855.940299 
L 775.741939 848.686567 
L 772.785139 840.168777 
L 770.613686 834.179104 
L 767.796607 826.925373 
L 764.806271 819.671642 
L 761.544123 812.41791 
L 758.095716 805.164179 
L 754.390828 797.910448 
L 750.532667 790.656716 
L 746.49488 783.402985 
L 742.05837 776.149254 
L 736.673684 767.925611 
L 729.451393 757.762295 
L 727.003879 754.38806 
L 721.483834 747.134328 
L 715.006811 739.083421 
L 707.78452 730.86259 
L 700.562229 723.185805 
L 693.339938 715.792457 
L 686.117647 708.931091 
L 678.895356 702.460599 
L 671.563009 696.358209 
L 662.496005 689.104478 
L 652.812538 681.850746 
L 650.006192 679.838733 
L 642.364018 674.597015 
L 631.2893 667.343284 
L 619.370491 660.089552 
L 606.627551 652.835821 
L 599.450155 649.01087 
L 585.005573 641.707473 
L 577.783282 638.250289 
L 561.898512 631.074627 
L 544.520619 623.820896 
L 534.449536 619.928407 
L 520.004954 614.541711 
L 504.99763 609.313433 
L 491.115789 604.824762 
L 469.448916 598.289566 
L 455.004334 594.243964 
L 433.337461 588.599669 
L 418.892879 585.115577 
L 397.226006 580.22364 
L 375.559133 575.744357 
L 361.114551 572.953086 
L 346.669969 570.372749 
L 332.225387 567.862529 
L 310.558514 564.41988 
L 288.891641 561.24893 
L 267.224768 558.404389 
L 252.780186 556.670925 
L 238.335604 555.010978 
L 216.668731 552.747704 
L 195.001858 550.734964 
L 166.112693 548.418518 
L 151.668111 547.381313 
L 122.778947 545.627963 
L 101.112074 544.559431 
L 79.445201 543.711155 
L 65.000619 543.221732 
L 28.889164 542.47122 
L 7.222291 542.271317 
L 0 542.252022 
L 0 542.252022 
" clip-path="url(#p40d48e85bf)" style="fill: none; stroke: #ffffff; stroke-opacity: 0.3; stroke-width: 1.5"/>
    <path d="M 683.411919 972 
L 683.27415 964.746269 
L 682.988886 957.492537 
L 682.483437 950.238806 
L 681.790563 942.985075 
L 680.934621 935.731343 
L 679.914194 928.477612 
L 678.726158 921.223881 
L 677.326822 913.970149 
L 675.76828 906.716418 
L 674.027339 899.462687 
L 671.673065 890.762195 
L 669.964593 884.955224 
L 667.588491 877.701493 
L 664.450774 868.912135 
L 662.323294 863.19403 
L 659.397241 855.940299 
L 656.21073 848.686567 
L 652.795509 841.432836 
L 649.159998 834.179104 
L 645.217079 826.925373 
L 641.056375 819.671642 
L 635.56161 810.79149 
L 631.859147 805.164179 
L 626.723043 797.910448 
L 621.117028 790.323036 
L 613.894737 781.312248 
L 606.672446 772.941739 
L 603.026447 768.895522 
L 596.042596 761.641791 
L 585.005573 750.865528 
L 577.783282 744.277385 
L 570.560991 738.032466 
L 563.3387 732.129954 
L 548.894118 721.146465 
L 541.671827 716.059032 
L 533.956263 710.865672 
L 522.622586 703.61194 
L 512.782663 697.754989 
L 505.560372 693.64366 
L 497.288871 689.104478 
L 491.115789 685.8664 
L 476.671207 678.687403 
L 468.018986 674.597015 
L 451.559844 667.343284 
L 440.559752 662.789287 
L 426.11517 657.168699 
L 411.670588 651.924575 
L 397.226006 646.994036 
L 382.781424 642.384111 
L 368.336842 638.043612 
L 353.89226 633.992624 
L 332.225387 628.373605 
L 310.558514 623.267681 
L 296.113932 620.166412 
L 281.66935 617.194821 
L 267.224768 614.460016 
L 252.780186 611.916726 
L 237.177804 609.313433 
L 223.891022 607.305493 
L 209.44644 605.275618 
L 195.001858 603.375355 
L 173.334985 600.831391 
L 151.668111 598.599139 
L 130.001238 596.697709 
L 115.556656 595.571583 
L 93.889783 594.156469 
L 79.445201 593.397813 
L 65.000619 592.717332 
L 36.111455 591.795523 
L 14.444582 591.442666 
L 0 591.342959 
L 0 591.342959 
" clip-path="url(#p40d48e85bf)" style="fill: none; stroke: #ffffff; stroke-opacity: 0.3; stroke-width: 1.5"/>
    <path d="M 575.055618 972 
L 574.866248 964.746269 
L 574.478581 957.492537 
L 573.820333 950.238806 
L 572.927566 942.985075 
L 571.819961 935.731343 
L 570.560991 928.83732 
L 570.495151 928.477612 
L 568.947829 921.223881 
L 567.153942 913.970149 
L 565.137294 906.716418 
L 563.3387 900.922672 
L 562.879482 899.462687 
L 560.367484 892.208955 
L 557.565006 884.955224 
L 556.116409 881.54899 
L 554.491442 877.701493 
L 551.181046 870.447761 
L 548.894118 865.717026 
L 547.645226 863.19403 
L 543.769107 855.940299 
L 541.671827 852.311022 
L 539.555551 848.686567 
L 535.019106 841.432836 
L 534.449536 840.567799 
L 530.223043 834.179104 
L 527.227245 829.936311 
L 525.076121 826.925373 
L 520.004954 820.204134 
L 519.596002 819.671642 
L 513.657172 812.41791 
L 512.782663 811.398997 
L 507.350492 805.164179 
L 505.560372 803.240202 
L 500.511934 797.910448 
L 498.33808 795.698539 
L 493.327613 790.656716 
L 491.115789 788.527444 
L 485.645711 783.402985 
L 483.893498 781.85904 
L 477.35141 776.149254 
L 476.671207 775.577468 
L 469.448916 769.613843 
L 468.553116 768.895522 
L 462.226625 764.05887 
L 459.027853 761.641791 
L 455.004334 758.702739 
L 448.930569 754.38806 
L 447.782043 753.598397 
L 440.559752 748.680974 
L 438.219135 747.134328 
L 433.337461 744.010799 
L 426.72383 739.880597 
L 426.11517 739.517164 
L 418.892879 735.287462 
L 414.206201 732.626866 
L 411.670588 731.231364 
L 404.448297 727.26844 
L 400.85811 725.373134 
L 397.226006 723.511359 
L 390.003715 719.897952 
L 386.401139 718.119403 
L 382.781424 716.394083 
L 375.559133 713.065654 
L 370.707202 710.865672 
L 368.336842 709.820837 
L 361.114551 706.750301 
L 353.89226 703.737171 
L 353.577595 703.61194 
L 346.669969 700.952254 
L 339.447678 698.13543 
L 334.654334 696.358209 
L 332.225387 695.476919 
L 325.003096 692.941213 
L 317.780805 690.429678 
L 313.819699 689.104478 
L 310.558514 688.044851 
L 303.336223 685.745404 
L 296.113932 683.567281 
L 290.500773 681.850746 
L 288.891641 681.369348 
L 281.66935 679.337649 
L 274.447059 677.33272 
L 267.224768 675.438145 
L 263.992267 674.597015 
L 260.002477 673.582201 
L 252.780186 671.855704 
L 245.557895 670.114276 
L 238.335604 668.474492 
L 233.23416 667.343284 
L 231.113313 666.882764 
L 223.891022 665.384609 
L 216.668731 663.913323 
L 209.44644 662.535207 
L 202.224149 661.1623 
L 196.205652 660.089552 
L 195.001858 659.878605 
L 187.779567 658.67943 
L 180.557276 657.482822 
L 173.334985 656.353989 
L 166.112693 655.2884 
L 158.890402 654.23865 
L 151.668111 653.262109 
L 148.327753 652.835821 
L 144.44582 652.350618 
L 137.223529 651.487143 
L 130.001238 650.662606 
L 122.778947 649.867424 
L 115.556656 649.135433 
L 108.334365 648.461145 
L 101.112074 647.806633 
L 93.889783 647.203551 
L 86.667492 646.640291 
L 79.445201 646.157392 
L 72.22291 645.670171 
L 70.770374 645.58209 
L 65.000619 645.237645 
L 57.778328 644.894792 
L 50.556037 644.541557 
L 43.333746 644.243049 
L 36.111455 643.989529 
L 28.889164 643.791756 
L 21.666873 643.620255 
L 14.444582 643.508199 
L 7.222291 643.413563 
L 0 643.375174 
" clip-path="url(#p40d48e85bf)" style="fill: none; stroke: #ffffff; stroke-opacity: 0.3; stroke-width: 1.5"/>
    <path d="M 464.376267 972 
L 464.121757 964.746269 
L 463.602312 957.492537 
L 462.743705 950.238806 
L 462.226625 946.995424 
L 461.587009 942.985075 
L 460.14949 935.731343 
L 458.425503 928.477612 
L 456.406114 921.223881 
L 455.004334 916.845184 
L 454.070224 913.970149 
L 451.411476 906.716418 
L 448.439236 899.462687 
L 447.782043 898.00411 
L 445.159394 892.208955 
L 441.50011 884.955224 
L 440.559752 883.249039 
L 437.438367 877.701493 
L 433.337461 870.977251 
L 433.010012 870.447761 
L 428.262124 863.19403 
L 426.11517 860.153171 
L 423.093386 855.940299 
L 418.892879 850.503578 
L 417.457371 848.686567 
L 411.670588 841.831859 
L 411.333319 841.432836 
L 404.879156 834.179104 
L 404.448297 833.723583 
L 397.816028 826.925373 
L 397.226006 826.350874 
L 390.223447 819.671642 
L 390.003715 819.474346 
L 382.781424 813.063251 
L 382.033576 812.41791 
L 375.559133 807.072428 
L 373.214508 805.164179 
L 368.336842 801.426806 
L 363.586516 797.910448 
L 361.114551 796.142714 
L 353.89226 791.055504 
L 353.300679 790.656716 
L 346.669969 786.367775 
L 342.126131 783.402985 
L 339.447678 781.747455 
L 332.225387 777.475251 
L 329.908965 776.149254 
L 325.003096 773.432961 
L 317.780805 769.475145 
L 316.686482 768.895522 
L 310.558514 765.783661 
L 303.336223 762.20664 
L 302.144127 761.641791 
L 296.113932 758.872111 
L 288.891641 755.537671 
L 286.255984 754.38806 
L 281.66935 752.442591 
L 274.447059 749.423276 
L 268.690422 747.134328 
L 267.224768 746.568539 
L 260.002477 743.816442 
L 252.780186 741.219989 
L 249.067554 739.880597 
L 245.557895 738.66172 
L 238.335604 736.283708 
L 231.113313 733.969672 
L 226.725434 732.626866 
L 223.891022 731.782008 
L 216.668731 729.665814 
L 209.44644 727.677694 
L 202.224149 725.706852 
L 200.927584 725.373134 
L 195.001858 723.885287 
L 187.779567 722.166914 
L 180.557276 720.464313 
L 173.334985 718.854272 
L 169.859829 718.119403 
L 166.112693 717.350546 
L 158.890402 715.899164 
L 151.668111 714.541483 
L 144.44582 713.261511 
L 137.223529 712.039787 
L 130.001238 710.875027 
L 129.94101 710.865672 
L 122.778947 709.776872 
L 115.556656 708.762401 
L 108.334365 707.825328 
L 101.112074 706.921279 
L 93.889783 706.086746 
L 86.667492 705.309065 
L 79.445201 704.63346 
L 72.22291 703.96357 
L 68.007307 703.61194 
L 65.000619 703.36742 
L 57.778328 702.888838 
L 50.556037 702.40974 
L 43.333746 702.001771 
L 36.111455 701.65512 
L 28.889164 701.38119 
L 21.666873 701.147948 
L 14.444582 700.991534 
L 7.222291 700.863951 
L 0 700.810808 
" clip-path="url(#p40d48e85bf)" style="fill: none; stroke: #ffffff; stroke-opacity: 0.3; stroke-width: 1.5"/>
    <path d="M 341.368128 972 
L 341.013653 964.746269 
L 340.289802 957.492537 
L 339.447678 952.2875 
L 339.105686 950.238806 
L 337.480715 942.985075 
L 335.457056 935.731343 
L 333.024645 928.477612 
L 332.225387 926.441031 
L 330.125022 921.223881 
L 326.780432 913.970149 
L 325.003096 910.566294 
L 322.985114 906.716418 
L 318.743379 899.462687 
L 317.780805 897.964984 
L 313.972099 892.208955 
L 310.558514 887.572713 
L 308.595486 884.955224 
L 303.336223 878.511407 
L 302.648928 877.701493 
L 296.113932 870.581818 
L 295.991568 870.447761 
L 288.973399 863.19403 
L 288.891641 863.115385 
L 281.66935 856.508705 
L 281.03945 855.940299 
L 274.447059 850.386808 
L 272.340748 848.686567 
L 267.224768 844.808525 
L 262.688674 841.432836 
L 260.002477 839.528231 
L 252.780186 834.655486 
L 252.07443 834.179104 
L 245.557895 830.027308 
L 240.432231 826.925373 
L 238.335604 825.715508 
L 231.113313 821.650033 
L 227.439427 819.671642 
L 223.891022 817.863376 
L 216.668731 814.252908 
L 212.778557 812.41791 
L 209.44644 810.908102 
L 202.224149 807.666871 
L 196.306762 805.164179 
L 195.001858 804.641913 
L 187.779567 801.888803 
L 180.557276 799.174444 
L 177.014222 797.910448 
L 173.334985 796.638006 
L 166.112693 794.264019 
L 158.890402 791.955945 
L 154.567661 790.656716 
L 151.668111 789.817285 
L 144.44582 787.840929 
L 137.223529 785.955274 
L 130.001238 784.159552 
L 126.828906 783.402985 
L 122.778947 782.481327 
L 115.556656 780.956746 
L 108.334365 779.54569 
L 101.112074 778.19019 
L 93.889783 776.93725 
L 89.011183 776.149254 
L 86.667492 775.781033 
L 79.445201 774.784612 
L 72.22291 773.808688 
L 65.000619 772.930949 
L 57.778328 772.204408 
L 50.556037 771.491689 
L 43.333746 770.88147 
L 36.111455 770.362791 
L 28.889164 769.949183 
L 21.666873 769.601543 
L 14.444582 769.364113 
L 7.222291 769.175156 
L 0 769.094951 
" clip-path="url(#p40d48e85bf)" style="fill: none; stroke: #ffffff; stroke-opacity: 0.3; stroke-width: 1.5"/>
    <path d="M 172.514359 972 
L 171.769241 964.746269 
L 170.244123 957.492537 
L 167.805417 950.238806 
L 166.112693 946.47847 
L 164.498225 942.985075 
L 160.323687 935.731343 
L 158.890402 933.659336 
L 155.102704 928.477612 
L 151.668111 924.466674 
L 148.736595 921.223881 
L 144.44582 917.055993 
L 141.126009 913.970149 
L 137.223529 910.769092 
L 132.043565 906.716418 
L 130.001238 905.279058 
L 122.778947 900.411251 
L 121.266014 899.462687 
L 115.556656 896.1964 
L 108.334365 892.364641 
L 108.028607 892.208955 
L 101.112074 889.029048 
L 93.889783 885.956632 
L 91.360109 884.955224 
L 86.667492 883.234415 
L 79.445201 880.89406 
L 72.22291 878.622697 
L 68.970932 877.701493 
L 65.000619 876.657227 
L 57.778328 875.064188 
L 50.556037 873.524805 
L 43.333746 872.20141 
L 36.111455 871.076242 
L 31.087828 870.447761 
L 28.889164 870.187132 
L 21.666873 869.474089 
L 14.444582 868.980448 
L 7.222291 868.594741 
L 0 868.428697 
" clip-path="url(#p40d48e85bf)" style="fill: none; stroke: #ffffff; stroke-opacity: 0.3; stroke-width: 1.5"/>
    <path clip-path="url(#p40d48e85bf)" style="fill: none; stroke: #ffffff; stroke-opacity: 0.3; stroke-width: 1.5"/>
   </g>
  </g>
 </g>
 <defs>
  <clipPath id="p40d48e85bf">
   <rect x="0" y="0" width="2332.8" height="972"/>
  </clipPath>
 </defs>
</svg>
